<?xml version="1.0" standalone="no"?>
<!DOCTYPE svg PUBLIC "-//W3C//DTD SVG 1.1//EN" "http://www.w3.org/Graphics/SVG/1.1/DTD/svg11.dtd" >
<svg xmlns="http://www.w3.org/2000/svg" xmlns:xlink="http://www.w3.org/1999/xlink" version="1.1">
<metadata></metadata>
<defs>
<font id="geometric_slabserif_703bold" horiz-adv-x="1024" >
<font-face units-per-em="2048" ascent="1638" descent="-410" />
<missing-glyph horiz-adv-x="546" />
<glyph horiz-adv-x="0" />
<glyph horiz-adv-x="682" />
<glyph unicode=" "  horiz-adv-x="546" />
<glyph unicode="&#x09;" horiz-adv-x="546" />
<glyph unicode="&#xa0;" horiz-adv-x="546" />
<glyph unicode="!" horiz-adv-x="706" d="M170 158q0 78 52 129t130 51q77 0 131 -52.5t54 -127.5t-54.5 -129t-130.5 -54q-79 0 -130.5 52.5t-51.5 130.5zM197 1475h313l-55 -1031h-203z" />
<glyph unicode="&#x22;" horiz-adv-x="643" d="M86 879v557h164v-557h-164zM395 879v557h164v-557h-164z" />
<glyph unicode="#" horiz-adv-x="1574" d="M70 428l61 172h297l90 252h-315l61 172h316l155 436h191l-154 -436h250l156 436h190l-154 -436h291l-59 -172h-293l-90 -252h309l-61 -172h-307l-156 -434h-191l156 434h-252l-158 -434h-190l156 434h-299zM618 598h256l91 254h-256z" />
<glyph unicode="$" horiz-adv-x="1095" d="M109 2v449h155q22 -97 78 -164.5t141 -98.5v426q-362 99 -362 383q0 163 98.5 265.5t263.5 109.5v117h127v-121q133 -13 197 -125l-6 119h149v-391h-143q-26 91 -78.5 149t-118.5 72v-371q219 -59 324.5 -161t105.5 -259q0 -173 -121.5 -293t-308.5 -126v-168h-127v176 q-75 12 -134.5 54t-94.5 108l8 -150h-153zM344 1032q0 -61 37 -107.5t102 -66.5v338q-66 -15 -102.5 -58.5t-36.5 -105.5zM610 178q94 12 147.5 66.5t53.5 132.5q0 74 -48 121.5t-153 83.5v-404z" />
<glyph unicode="%" horiz-adv-x="1816" d="M70 1075q0 153 105 257t255 104q152 0 257.5 -104t105.5 -257q0 -152 -107 -257t-256 -105q-148 0 -254 105t-106 257zM266 1075q0 -69 48.5 -117.5t117.5 -48.5t116.5 48t47.5 118q0 71 -48 118.5t-116 47.5t-117 -48t-49 -118zM410 -29l852 1493h143l-852 -1493h-143z M1022 362q0 153 106 257t256 104q152 0 257.5 -104t105.5 -257q0 -152 -107 -257t-256 -105q-148 0 -255 105t-107 257zM1221 362q0 -69 47 -117t116 -48t116.5 47.5t47.5 117.5q0 71 -48 118.5t-116 47.5t-115.5 -48t-47.5 -118z" />
<glyph unicode="&#x26;" horiz-adv-x="1517" d="M123 367q0 121 63.5 216t206.5 208q-92 105 -137 191.5t-45 170.5q0 142 105 244t253 102q139 0 236.5 -94.5t97.5 -239.5q0 -103 -51 -192t-158 -182l283 -312q101 145 115 312h-113v180h428v-180h-129q-9 -235 -168 -461l119 -125h178v-205h-311l-140 160 q-102 -96 -210 -142.5t-234 -46.5q-170 0 -279.5 113.5t-109.5 282.5zM354 373q0 -80 52.5 -130t140.5 -50q152 0 274 116l-297 326q-170 -138 -170 -262zM418 1174q0 -105 141 -252q75 66 111.5 124.5t36.5 120.5q0 70 -41 115t-103 45q-63 0 -104 -43t-41 -110z" />
<glyph unicode="'" horiz-adv-x="333" d="M86 879v557h164v-557h-164z" />
<glyph unicode="(" horiz-adv-x="649" d="M109 571q0 243 88.5 480t259.5 452l172 -125q-140 -179 -214.5 -388t-74.5 -419q0 -214 75.5 -422.5t217.5 -379.5l-176 -127q-171 213 -259.5 450t-88.5 479z" />
<glyph unicode=")" horiz-adv-x="649" d="M16 -231q142 171 217.5 379.5t75.5 422.5q0 210 -74.5 419t-214.5 388l173 125q171 -215 259.5 -452t88.5 -480q0 -242 -88.5 -479t-259.5 -450z" />
<glyph unicode="*" horiz-adv-x="1138" d="M141 1149l74 192l285 -149l-29 311h207l-35 -311l281 149l73 -192l-321 -92l237 -209l-153 -135l-193 256l-188 -256l-154 135l238 209z" />
<glyph unicode="+" horiz-adv-x="1705" d="M254 528v166h514v527h170v-527h514v-166h-514v-528h-170v528h-514z" />
<glyph unicode="," horiz-adv-x="546" d="M35 -217l135 457h260l-149 -457h-246z" />
<glyph unicode="-" horiz-adv-x="630" d="M61 371v211h508v-211h-508z" />
<glyph unicode="." horiz-adv-x="546" d="M90 158q0 78 53 129t131 51q76 0 129.5 -52.5t53.5 -127.5t-53.5 -129t-129.5 -54q-79 0 -131.5 52.5t-52.5 130.5z" />
<glyph unicode="/" horiz-adv-x="681" d="M4 -190l504 1693h137l-504 -1693h-137z" />
<glyph unicode="0" horiz-adv-x="1095" d="M94 537v364q0 85 2 129.5t17.5 109.5t46.5 117q60 100 160 153.5t227 53.5q263 0 389 -207q40 -66 51.5 -138.5t11.5 -176.5v-41v-364v-48q0 -56 -2 -91t-12 -84t-29 -91q-53 -118 -160.5 -185t-248.5 -67q-127 0 -227 54.5t-160 154.5q-31 52 -46.5 117t-17.5 109.5 t-2 130.5zM342 557q0 -73 5 -126t18 -100t35.5 -75.5t59 -44.5t87.5 -16q119 0 163 87t44 275v324q0 188 -43 275t-164 87q-119 0 -162 -87.5t-43 -276.5v-322z" />
<glyph unicode="1" horiz-adv-x="1095" d="M264 0v199h168v1038h-156v199h404v-1237h166v-199h-582z" />
<glyph unicode="2" horiz-adv-x="1095" d="M86 0v199l467 516q105 116 155 201t50 159q0 82 -52.5 128t-148.5 46q-124 0 -173.5 -80t-49.5 -260v-41h-236q-2 25 -2 70q0 266 115 396t350 130q207 0 327 -107t120 -286q0 -68 -19 -129t-61.5 -123.5t-87 -113.5t-117.5 -125l-361 -365h424v205h236v-420h-936z" />
<glyph unicode="3" horiz-adv-x="1095" d="M80 453q0 9 1 26.5t1 26.5h244q3 -160 57 -235.5t168 -75.5q93 0 154 65t61 160q0 108 -69.5 169.5t-192.5 61.5h-23v178q6 0 17 -1t16 -1q113 0 171 58.5t58 167.5q0 90 -50.5 142t-137.5 52q-119 0 -167 -78t-48 -258v-14h-242q0 9 -1 32.5t-1 39.5q0 237 119 367 t332 130q207 0 324.5 -111t117.5 -298q0 -120 -53 -200t-150 -109q105 -25 165.5 -112t60.5 -214q0 -207 -123 -328t-338 -121q-231 0 -351 122.5t-120 357.5z" />
<glyph unicode="4" horiz-adv-x="1095" d="M86 342v186l553 908h238v-914h172v-180h-172v-160h172v-182h-607v182h203v160h-559zM301 522h344v357q0 105 25 284z" />
<glyph unicode="5" horiz-adv-x="1095" d="M84 414q0 6 1 20t1 21h238v-29q0 -113 51.5 -172t148.5 -59q109 0 172.5 73t63.5 203q0 136 -77.5 198t-244.5 62q-88 0 -252 -18v725h705v-217h-461v-271q31 2 80 2q235 0 367.5 -131.5t132.5 -357.5q0 -221 -129 -356.5t-344 -135.5q-207 0 -330 119.5t-123 323.5z" />
<glyph unicode="6" horiz-adv-x="1095" d="M104 520v432q0 252 118 382t341 130q201 0 313.5 -108.5t112.5 -304.5v-21h-241q-6 110 -52 163.5t-137 53.5q-53 0 -90.5 -16t-60.5 -43t-36 -73.5t-17.5 -97.5t-4.5 -124v-105q138 105 271 105q173 0 287 -125.5t114 -329.5q0 -208 -124.5 -337.5t-330.5 -129.5 q-234 0 -348.5 136.5t-114.5 412.5zM352 432q0 -105 60.5 -171t148.5 -66t149.5 66.5t61.5 170.5t-61 171t-150 67q-88 0 -148.5 -67t-60.5 -171z" />
<glyph unicode="7" horiz-adv-x="1095" d="M109 967v469h911v-209l-528 -1227h-265l539 1221h-422v-254h-235z" />
<glyph unicode="8" horiz-adv-x="1095" d="M88 381q0 238 219 362q-97 50 -149 133t-52 189q0 175 124 288t317 113t317.5 -113t124.5 -288q0 -105 -53 -188.5t-150 -133.5q222 -126 222 -362q0 -174 -129 -292t-332 -118t-331 118t-128 292zM330 408q0 -94 64 -158t155 -64t154 64t63 158q0 95 -62.5 159 t-154.5 64q-93 0 -156 -63.5t-63 -159.5zM348 1049q0 -86 57 -145.5t142 -59.5q84 0 143.5 59t59.5 146t-59.5 146.5t-143.5 59.5q-85 0 -142 -59t-57 -147z" />
<glyph unicode="9" horiz-adv-x="1095" d="M74 995q0 209 124.5 339t329.5 130q234 0 348.5 -136.5t114.5 -412.5v-434q0 -252 -118 -381t-341 -129q-202 0 -314 108t-112 304v20h242q6 -110 52 -162.5t137 -52.5q53 0 90.5 16t60.5 43t35.5 73.5t17 97t4.5 123.5v104q-134 -102 -270 -102q-173 0 -287 124.5 t-114 327.5zM322 1004q0 -104 60.5 -171t149.5 -67q88 0 149.5 67t61.5 171q0 105 -61.5 171t-149.5 66t-149 -66.5t-61 -170.5z" />
<glyph unicode=":" horiz-adv-x="673" d="M154 158q0 78 52 129t130 51q76 0 129 -52.5t53 -127.5t-53 -129t-129 -54q-79 0 -130.5 52.5t-51.5 130.5zM154 795q0 78 52 130t130 52q76 0 129 -53.5t53 -128.5t-53 -128t-129 -53q-79 0 -130.5 51.5t-51.5 129.5z" />
<glyph unicode=";" horiz-adv-x="673" d="M70 -217l137 457h258l-150 -457h-245zM162 795q0 78 53 130t131 52q76 0 129 -53.5t53 -128.5t-53 -128t-129 -53q-79 0 -131.5 51.5t-52.5 129.5z" />
<glyph unicode="&#x3c;" horiz-adv-x="1705" d="M264 530v160l1178 486v-185l-934 -381l934 -381v-182z" />
<glyph unicode="=" horiz-adv-x="1705" d="M254 322v165h1198v-165h-1198zM254 733v168h1198v-168h-1198z" />
<glyph unicode="&#x3e;" horiz-adv-x="1705" d="M264 47v182l934 381l-934 381v185l1178 -486v-160z" />
<glyph unicode="?" horiz-adv-x="1218" d="M172 1073q19 210 132.5 320t309.5 110q199 0 317 -110.5t118 -292.5q0 -155 -88 -259.5t-248 -138.5v-258h-238v439q15 0 29.5 -1t15.5 -1q140 0 214.5 60.5t74.5 168.5q0 84 -54 134t-147 50q-91 0 -147 -58.5t-60 -162.5h-229zM403 158q0 78 52.5 129t130.5 51 q76 0 129 -52.5t53 -127.5t-53 -129t-129 -54q-79 0 -131 52.5t-52 130.5z" />
<glyph unicode="@" horiz-adv-x="2048" d="M98 522q0 333 205 586q147 179 353 272t460 93q168 0 316.5 -46t253.5 -127q264 -203 264 -536q0 -163 -65 -302.5t-185 -236.5q-139 -112 -318 -112q-106 0 -157 40.5t-51 125.5v4q-55 -87 -128.5 -127.5t-175.5 -40.5q-152 0 -232.5 86.5t-80.5 249.5q0 156 64.5 284.5 t172.5 200.5t234 72q173 0 248 -142l55 107h154l-148 -586q-8 -40 -8 -49q0 -38 26.5 -61t69.5 -23q49 0 105.5 29.5t107.5 85.5q71 76 109.5 177t38.5 216q0 251 -185.5 410t-490.5 159q-276 0 -471 -125q-182 -114 -279.5 -291.5t-97.5 -394.5q0 -312 209.5 -499 t558.5 -187q167 0 325 49t290 142l67 -99q-300 -227 -674 -227q-386 0 -632 190q-308 235 -308 633zM741 444q0 -99 45 -151.5t129 -52.5q89 0 163 66t100 173l55 228q-13 85 -61 130.5t-123 45.5q-127 0 -217.5 -128.5t-90.5 -310.5z" />
<glyph unicode="A" horiz-adv-x="1402" d="M-6 0v205h117l372 1065h-159v205h755v-205h-170l365 -1065h135v-205h-559v205h158l-90 268h-463l-90 -268h157v-205h-528zM518 678h334l-166 500z" />
<glyph unicode="B" horiz-adv-x="1255" d="M51 0v205h158v1065h-158v205h533q241 0 367 -97t126 -278q0 -234 -250 -301q155 -37 235.5 -131.5t80.5 -237.5q0 -430 -559 -430h-533zM473 205h111q155 0 225 55.5t70 188.5q0 130 -71 186.5t-224 56.5h-111v-487zM473 883h111q107 0 167 51t60 141q0 94 -58.5 144.5 t-168.5 50.5h-111v-387z" />
<glyph unicode="C" horiz-adv-x="1554" d="M66 737q0 225 99 400.5t269.5 270.5t382.5 95q131 0 234.5 -39.5t165.5 -111.5l-5 123h220v-492h-220q-44 133 -142.5 203.5t-235.5 70.5q-221 0 -357.5 -143.5t-136.5 -376.5t136 -375.5t358 -142.5q139 0 233 62.5t162 197.5h256q-60 -234 -236.5 -371t-414.5 -137 q-164 0 -307 58t-244 159.5t-159 243.5t-58 305z" />
<glyph unicode="D" horiz-adv-x="1533" d="M51 0v205h158v1065h-158v205h592q406 0 616.5 -190t210.5 -548t-210 -547.5t-617 -189.5h-592zM473 205h178q269 0 408 136t139 396t-139 396.5t-408 136.5h-178v-1065z" />
<glyph unicode="E" horiz-adv-x="1280" d="M51 0v205h158v1065h-158v205h1123v-402h-230v195h-471v-369h395v-221h-395v-473h463v231h238v-436h-1123z" />
<glyph unicode="F" horiz-adv-x="1222" d="M51 0v205h158v1065h-158v205h1123v-402h-230v195h-471v-369h420v-221h-420v-473h193v-205h-615z" />
<glyph unicode="G" horiz-adv-x="1705" d="M61 737q0 165 57 307t158 243t245.5 158.5t312.5 57.5q134 0 241.5 -36.5t175.5 -104.5v113h217v-492h-217q-120 270 -413 270q-229 0 -362.5 -142.5t-133.5 -373.5q0 -226 141 -371t351 -145q148 0 255.5 62t188.5 196h-338v213h705v-213h-154v-479h-193l-8 168 q-179 -197 -469 -197q-157 0 -297.5 58t-242 158t-161 243.5t-59.5 306.5z" />
<glyph unicode="H" horiz-adv-x="1533" d="M51 0v205h158v1065h-158v205h580v-205h-158v-371h588v371h-158v205h578v-205h-156v-1065h156v-205h-578v205h158v457h-588v-457h158v-205h-580z" />
<glyph unicode="I" horiz-adv-x="681" d="M51 0v205h158v1065h-158v205h580v-205h-158v-1065h158v-205h-580z" />
<glyph unicode="J" horiz-adv-x="681" d="M35 20q35 -2 61 -2q121 0 121 134v1118h-178v205h600v-205h-156v-1133q0 -197 -89.5 -287t-289.5 -90q-44 0 -69 2v258z" />
<glyph unicode="K" horiz-adv-x="1327" d="M51 0v205h158v1065h-158v205h580v-205h-158v-482l406 482h-154v205h557v-205h-104l-424 -490l422 -575h137v-205h-588v205h147l-399 545v-545h158v-205h-580z" />
<glyph unicode="L" horiz-adv-x="1118" d="M51 0v205h158v1065h-158v205h602v-207h-180v-1063h369v231h239v-436h-1030z" />
<glyph unicode="M" horiz-adv-x="1812" d="M51 0v205h158v1065h-158v205h574l290 -846l293 846h553v-205h-157v-1065h157v-205h-594v205h176v997l-364 -1005h-141l-369 1005v-997h176v-205h-594z" />
<glyph unicode="N" horiz-adv-x="1488" d="M51 0v205h158v1065h-158v205h451l526 -963v758h-158v205h566v-205h-158v-1299h-223l-594 1116v-882h155v-205h-565z" />
<glyph unicode="O" horiz-adv-x="1669" d="M61 737q0 213 99.5 388t277 276.5t396.5 101.5q309 0 516 -186q126 -113 192 -260.5t66 -319.5q0 -149 -52.5 -283.5t-150.5 -240.5q-222 -242 -571 -242q-163 0 -307.5 60t-246 162.5t-160.5 244t-59 299.5zM342 737q0 -225 142.5 -370.5t349.5 -145.5q103 0 193.5 38 t156.5 105t104.5 164t38.5 209q0 226 -142.5 371t-350.5 145q-100 0 -190 -38t-156.5 -104.5t-106 -164t-39.5 -209.5z" />
<glyph unicode="P" horiz-adv-x="1200" d="M51 0v205h158v1065h-158v205h504q310 0 467.5 -120t157.5 -351q0 -230 -157.5 -349.5t-467.5 -119.5h-82v-330h191v-205h-613zM473 737h82q181 0 269.5 66t88.5 203t-88.5 201.5t-269.5 64.5h-82v-535z" />
<glyph unicode="Q" horiz-adv-x="1669" d="M61 737q0 213 99.5 388t277 276.5t396.5 101.5q306 0 516 -186q126 -110 192 -259t66 -321q0 -222 -110.5 -405.5t-299.5 -274.5l41 -75h203v-238h-338l-117 240q-99 -13 -153 -13q-304 0 -515 187q-125 110 -191.5 259.5t-66.5 319.5zM342 737q0 -228 141 -372t351 -144 h32l-69 144l190 104l96 -188q116 60 180 179.5t64 276.5q0 229 -141 372.5t-352 143.5q-209 0 -350.5 -144t-141.5 -372z" />
<glyph unicode="R" horiz-adv-x="1327" d="M51 0v205h158v1065h-158v205h608q271 0 402 -89.5t131 -289.5q0 -242 -252 -326q110 -15 159.5 -75.5t49.5 -180.5v-309h141v-205h-407v371q0 70 -5 113.5t-20.5 84t-45.5 61.5t-79.5 33.5t-122.5 12.5h-137v-471h178v-205h-600zM473 881h193q135 0 198.5 45t63.5 149 t-63.5 149.5t-198.5 45.5h-193v-389z" />
<glyph unicode="S" horiz-adv-x="1282" d="M131 1081q0 180 127 301t317 121q210 0 338 -125v97h205v-439h-205q-70 260 -297 260q-98 0 -157.5 -53.5t-59.5 -132.5q0 -72 40.5 -111.5t133.5 -66.5l179 -51q117 -34 197 -72t138.5 -91t85.5 -124.5t27 -165.5q0 -206 -125 -331.5t-334 -125.5q-239 0 -387 154v-125 h-213v500h213q41 -159 130.5 -241.5t220.5 -82.5q102 0 170.5 64t68.5 157q0 87 -62.5 139.5t-197.5 90.5l-168 47q-198 55 -291.5 151t-93.5 256z" />
<glyph unicode="T" horiz-adv-x="1222" d="M51 1057v418h238h645h237v-418h-237v213h-191v-1065h191v-205h-645v205h190v1065h-190v-213h-238z" />
<glyph unicode="U" horiz-adv-x="1521" d="M78 1270v205h577v-205h-155v-733q0 -165 56.5 -240.5t205.5 -75.5q146 0 203 75t57 241v733h-156v205h578v-205h-156v-703q0 -138 -14.5 -226t-63.5 -165q-129 -205 -448 -205q-292 0 -430 172q-59 73 -79 171.5t-20 252.5v703h-155z" />
<glyph unicode="V" horiz-adv-x="1351" d="M23 1270v205h516v-205h-133l274 -811l272 811h-139v205h500v-205h-101l-448 -1299h-178l-459 1299h-104z" />
<glyph unicode="W" horiz-adv-x="1937" d="M-8 1270v205h510v-205h-140l246 -797l234 797h-133v205h520v-205h-135l249 -803l254 803h-163v205h512v-205h-105l-422 -1299h-172l-280 920l-277 -920h-174l-422 1299h-102z" />
<glyph unicode="X" horiz-adv-x="1351" d="M39 0v205h129l371 524l-361 541h-127v205h541v-205h-113l209 -334l213 334h-121v205h512v-205h-104l-369 -514l373 -551h129v-205h-551v205h119l-215 346l-221 -346h122v-205h-536z" />
<glyph unicode="Y" horiz-adv-x="1343" d="M27 1270v205h538v-205h-116l225 -367l221 367h-133v205h536v-205h-118l-383 -590v-475h180v-205h-627v205h180v475l-387 590h-116z" />
<glyph unicode="Z" horiz-adv-x="1329" d="M121 -4v192l756 1080h-486v-201h-241v403h1048v-180l-760 -1089h518v245h242v-450h-1077z" />
<glyph unicode="[" horiz-adv-x="743" d="M197 -174v1649h479v-181h-242v-1288h242v-180h-479z" />
<glyph unicode="\" horiz-adv-x="681" d="M20 1503h140l502 -1693h-138z" />
<glyph unicode="]" horiz-adv-x="743" d="M70 6h241v1288h-241v181h479v-1649h-479v180z" />
<glyph unicode="^" horiz-adv-x="2048" d="M418 899l497 561h218l495 -561h-207l-397 397l-399 -397h-207z" />
<glyph unicode="_" d="M0 -311h1024v-172h-1024v172z" />
<glyph unicode="`" d="M233 1436h222l204 -349h-131z" />
<glyph unicode="a" horiz-adv-x="1269" d="M53 477q0 211 137.5 355.5t346.5 144.5q169 0 299 -127v102h370v-198h-133v-555h133v-199h-370v102q-122 -125 -299 -125q-212 0 -348 141t-136 359zM295 475q0 -126 76.5 -205.5t197.5 -79.5q115 0 195 79.5t80 205.5t-80 206.5t-195 80.5q-122 0 -198 -80t-76 -207z " />
<glyph unicode="b" horiz-adv-x="1261" d="M55 0v199h133v1077h-133v199h369v-625q130 127 301 127q138 0 249 -66.5t172.5 -181t61.5 -252.5q0 -219 -135.5 -359.5t-347.5 -140.5q-179 0 -301 125v-102h-369zM418 475q0 -125 79 -205t195 -80t195.5 79t79.5 206q0 126 -80 206.5t-195 80.5t-194.5 -80.5 t-79.5 -206.5z" />
<glyph unicode="c" horiz-adv-x="1056" d="M51 477q0 219 136.5 360.5t336.5 141.5q151 0 254 -92v65h187v-319h-152q-62 77 -122.5 110t-149.5 33q-112 0 -182 -80t-70 -219q0 -125 75.5 -210t190.5 -85q91 0 159 36t142 122l148 -125q-184 -240 -447 -240q-218 0 -362 142.5t-144 359.5z" />
<glyph unicode="d" horiz-adv-x="1255" d="M53 477q0 211 137.5 355.5t346.5 144.5q169 0 299 -127v426h-131v199h368v-1276h133v-199h-370v102q-122 -125 -299 -125q-212 0 -348 141t-136 359zM295 475q0 -125 79 -205t195 -80q117 0 196 79t79 206q0 126 -80 206.5t-195 80.5t-194.5 -80.5t-79.5 -206.5z" />
<glyph unicode="e" horiz-adv-x="1140" d="M53 475q0 220 148.5 360t376.5 140q229 0 368 -148t139 -397v-24h-788q12 -109 87 -168.5t202 -59.5q80 0 142.5 27.5t96.5 75.5h234q-41 -145 -166 -225.5t-313 -80.5q-239 0 -383 139t-144 361zM297 573h553q-29 98 -98.5 149.5t-173.5 51.5q-108 0 -182 -53t-99 -148z " />
<glyph unicode="f" horiz-adv-x="667" d="M45 0v199h158v555h-158v198h158v129q0 82 4.5 135.5t18 101.5t37 75t63 47t93.5 27.5t132 7.5q36 0 65 -2v-189h-53q-44 0 -69 -7t-37.5 -27.5t-15.5 -44.5t-3 -70v-66v-117h166v-198h-166v-555h166v-199h-559z" />
<glyph unicode="g" horiz-adv-x="1261" d="M53 477q0 211 137.5 355.5t346.5 144.5q169 0 299 -127v102h370v-198h-133v-588v-78q0 -118 -10.5 -190.5t-46.5 -128.5q-60 -94 -168.5 -144.5t-255.5 -50.5q-260 0 -438 104v230q214 -129 368 -129q161 0 237.5 56.5t76.5 176.5v90q-122 -125 -299 -125 q-212 0 -348 141t-136 359zM295 475q0 -125 79 -205t195 -80q117 0 196 79t79 206q0 126 -80 206.5t-195 80.5t-194.5 -80.5t-79.5 -206.5z" />
<glyph unicode="h" horiz-adv-x="1216" d="M47 0v199h133v1077h-133v199h371v-652q84 78 165 116t173 38q152 0 223.5 -82t71.5 -250v-446h133v-199h-504v199h133v338v55q0 78 -39 120t-110 42q-123 0 -246 -144v-411h133v-199h-504z" />
<glyph unicode="i" horiz-adv-x="598" d="M45 0v199h145v555h-143v198h381v-753h137v-199h-520zM113 1108v252h315v-252h-315z" />
<glyph unicode="j" horiz-adv-x="569" d="M35 -213q32 4 55.5 11t40.5 15.5t28 24t17.5 29t9 40t3.5 48t1 59.5v37v703h-143v198h381v-886q0 -69 -0.5 -105t-4 -89.5t-11 -80t-20.5 -64t-33 -55t-49 -39.5t-68.5 -31.5t-90.5 -17t-116 -8.5v211zM113 1108v252h315v-252h-315z" />
<glyph unicode="k" horiz-adv-x="1138" d="M41 0v199h145v1077h-143v199h379v-959l303 238h-113v198h488v-198h-113l-315 -258l325 -297h103v-199h-475v199h84l-287 266v-266h115v-199h-496z" />
<glyph unicode="l" horiz-adv-x="591" d="M41 0v199h145v1077h-143v199h379v-1276h139v-199h-520z" />
<glyph unicode="m" horiz-adv-x="1792" d="M57 0v199h133v555h-133v198h371v-129q68 75 147 114.5t156 39.5q197 0 268 -170q131 170 326 170q158 0 230.5 -81.5t72.5 -250.5v-446h133v-199h-501v199h137v338q0 115 -32.5 166t-129.5 51q-116 0 -211 -109v-446h135v-199h-500v199h136v338q0 117 -32 167t-132 50 q-122 0 -209 -144v-411h137v-199h-502z" />
<glyph unicode="n" horiz-adv-x="1224" d="M57 0v199h133v555h-133v198h371v-129q84 79 164 116.5t172 37.5q152 0 224.5 -82.5t72.5 -249.5v-446h133v-199h-504v199h133v338v55q0 78 -39 120t-110 42q-123 0 -246 -144v-411h133v-199h-504z" />
<glyph unicode="o" horiz-adv-x="1157" d="M51 477q0 209 150.5 354.5t376.5 145.5q227 0 376.5 -145t149.5 -355q0 -137 -67 -250.5t-188 -180t-271 -66.5q-226 0 -376.5 143.5t-150.5 353.5zM297 477q0 -127 82 -210t199 -83q118 0 199 82.5t81 210.5q0 130 -80.5 212.5t-199.5 82.5t-200 -83t-81 -212z" />
<glyph unicode="p" horiz-adv-x="1263" d="M57 -227h133v981h-133v198h371v-102q130 127 299 127q138 0 249 -66.5t172.5 -181t61.5 -252.5q0 -219 -135 -359.5t-348 -140.5q-165 0 -299 113v-317h141v-199h-512v199zM420 475q0 -125 79 -205t195 -80t195.5 79t79.5 206q0 126 -80 206.5t-195 80.5t-194.5 -80.5 t-79.5 -206.5z" />
<glyph unicode="q" horiz-adv-x="1263" d="M53 477q0 211 137.5 355.5t346.5 144.5q169 0 299 -127v102h370v-198h-133v-981h133v-199h-512v199h142v317q-134 -113 -299 -113q-213 0 -348.5 140.5t-135.5 359.5zM295 475q0 -127 79 -206t195 -79t195.5 80t79.5 205q0 126 -80 206.5t-195 80.5t-194.5 -80.5 t-79.5 -206.5z" />
<glyph unicode="r" horiz-adv-x="825" d="M57 0v199h133v555h-133v198h371v-137l12 4q20 73 65.5 111.5t108.5 38.5q71 0 119.5 -48t48.5 -122q0 -73 -47 -120.5t-123 -47.5q-117 0 -170 131l-14 -6v-557h133v-199h-504z" />
<glyph unicode="s" horiz-adv-x="1052" d="M100 684q0 134 95 213.5t251 79.5q174 0 267 -90l2 65h178v-301h-193q-54 156 -225 156q-69 0 -109 -28t-40 -72q0 -40 23 -62.5t53 -31t106 -22.5q11 -2 16 -3l109 -19q168 -31 250 -102.5t82 -192.5q0 -128 -99 -213.5t-264 -85.5q-160 0 -311 95l-2 -70h-178v332h186 q35 -88 109.5 -134t181.5 -46q66 0 104.5 31.5t38.5 80.5q0 22 -8.5 38t-20.5 26.5t-36 18.5t-44.5 13t-56.5 11l-157 26q-156 28 -232 98t-76 189z" />
<glyph unicode="t" horiz-adv-x="692" d="M25 754v198h165v336h236v-336h174v-198h-174v-389q0 -48 1 -74t7 -49t13 -32.5t25.5 -16.5t38 -8t56.5 -1q5 0 33 4v-188q-73 -8 -160 -8q-85 0 -133 10.5t-75 42t-34.5 76t-7.5 125.5v508h-165z" />
<glyph unicode="u" horiz-adv-x="1218" d="M33 754v198h370v-536v-56q0 -77 39.5 -119t110.5 -42q124 0 246 143v412h-133v198h370v-753h131v-199h-368v129q-84 -78 -165 -116t-173 -38q-152 0 -223.5 82t-71.5 250v447h-133z" />
<glyph unicode="v" horiz-adv-x="1103" d="M10 754v198h459v-198h-92l180 -455l193 455h-97v198h441v-198h-113l-334 -754h-192l-334 754h-111z" />
<glyph unicode="w" horiz-adv-x="1626" d="M8 754v198h445v-198h-105l174 -447l189 447h-113v198h446v-198h-114l182 -447l184 447h-125v198h449v-198h-107l-319 -754h-164l-217 522l-223 -522h-158l-311 754h-113z" />
<glyph unicode="x" horiz-adv-x="1138" d="M47 0v199h139l254 272l-280 283h-113v198h379v-164l147 -176l136 176v164h376v-198h-137l-241 -271l286 -284h92v-199h-374v188l-142 154l-127 -154v-188h-395z" />
<glyph unicode="y" horiz-adv-x="1161" d="M14 754v198h486v-198h-127l205 -490l213 490h-123v198h477v-198h-117l-467 -981h150v-199h-535v199h150l125 252l-318 729h-119z" />
<glyph unicode="z" horiz-adv-x="1007" d="M74 0v199l544 555h-311v-127h-205v325h809v-198l-542 -555h362v141h203v-340h-860z" />
<glyph unicode="{" d="M162 442v179q7 0 21.5 -1.5t21.5 -1.5q127 0 179 59.5t52 201.5v247q0 128 19.5 195.5t83.5 105.5q50 29 117.5 39.5t172.5 10.5h45v-179q-8 0 -24 1t-23 1q-115 0 -150.5 -44.5t-35.5 -170.5v-241q0 -147 -41 -215.5t-162 -98.5q121 -30 162 -99t41 -214v-240 q0 -65 7 -103t27.5 -65.5t56.5 -38t97 -10.5q7 0 22 1t23 1v-176h-63q-189 0 -272 49q-63 37 -83 105t-20 194v248q0 142 -51.5 202t-179.5 60q-7 0 -21.5 -1t-21.5 -1z" />
<glyph unicode="|" d="M424 -483v2048h178v-2048h-178z" />
<glyph unicode="}" d="M152 -238q8 0 23 -1t22 -1q116 0 151 45t35 172v240q0 145 42 214t163 99q-122 29 -163.5 98.5t-41.5 215.5v241q0 126 -35 170.5t-149 44.5q-7 0 -23 -1t-24 -1v179h45q104 0 171.5 -10.5t116.5 -39.5q64 -38 83.5 -106t19.5 -195v-247q0 -142 51.5 -201.5t179.5 -59.5 q6 0 21 1.5t22 1.5v-179q-7 0 -21.5 1t-21.5 1q-128 0 -179.5 -60t-51.5 -202v-248q0 -127 -19.5 -194t-83.5 -105q-48 -29 -115.5 -39t-172.5 -10h-45v176z" />
<glyph unicode="~" horiz-adv-x="1705" d="M178 434v187q210 143 387 143q122 0 293 -59q12 -4 48.5 -17t51 -18t45.5 -14.5t51 -13.5t46.5 -7.5t50.5 -3.5q166 0 379 153v-184q-204 -141 -381 -141q-91 0 -191 35q-19 6 -79.5 27t-85.5 28.5t-71.5 20.5t-83.5 17.5t-75 4.5q-160 0 -385 -158z" />
<glyph unicode="&#xa1;" horiz-adv-x="706" d="M170 1317q0 78 51.5 129t130.5 51q77 0 131 -52.5t54 -127.5t-54 -127.5t-131 -52.5q-78 0 -130 51t-52 129zM197 0l55 1030h203l55 -1030h-313z" />
<glyph unicode="&#xa2;" horiz-adv-x="1095" d="M109 479q0 215 133 356.5t333 141.5q53 0 105 -12l76 223h114l-90 -270q50 -31 90 -87l-8 121h137v-327h-161q-37 78 -117 116l-195 -553q33 -8 70 -8q78 0 145 37.5t136 116.5l141 -127q-94 -114 -203 -173t-217 -59q-45 0 -135 19l-88 -262h-121l108 303 q-124 73 -188.5 186t-64.5 258zM346 489q0 -138 86 -237l184 522q-16 2 -28 2q-103 0 -172.5 -79.5t-69.5 -207.5z" />
<glyph unicode="&#xa3;" horiz-adv-x="1095" d="M49 -23v250q248 15 248 265q0 64 -25 137h-204v190h165q-43 154 -43 256q0 182 111.5 286.5t306.5 104.5q196 0 299 -104.5t103 -304.5q0 -33 -2 -51h-230v30q0 113 -40 164t-132 51q-76 0 -121 -48t-45 -128q0 -56 56 -256h247v-190h-219q11 -68 11 -107 q0 -122 -68 -258q88 -59 178 -59q88 0 130 45t42 141v6h238l4 -47q0 -5 1 -14t1 -14q0 -141 -102.5 -246t-247.5 -105q-173 0 -342 135q-114 -131 -285 -131l-12 1q-11 1 -23 1z" />
<glyph unicode="&#xa4;" horiz-adv-x="1241" d="M76 432l203 205q-80 109 -80 248t80 248l-203 204l92 93l203 -203q110 82 250 82q141 0 251 -82l203 203l94 -93l-204 -204q79 -107 79 -248t-79 -248l204 -205l-94 -92l-203 205q-113 -82 -249 -82q-142 0 -252 82l-203 -205zM332 885q0 -120 85 -204.5t206 -84.5 t205.5 84.5t84.5 204.5q0 119 -85 205t-205 86t-205.5 -86t-85.5 -205z" />
<glyph unicode="&#xa5;" horiz-adv-x="1095" d="M-16 1247v191h477v-191h-115l205 -385l199 385h-115v191h481v-191h-104l-158 -278h227v-154h-307l-96 -162h403v-153h-409v-310h168v-190h-584v190h168v310h-410v153h406l-92 162h-314v154h224l-158 278h-96z" />
<glyph unicode="&#xa6;" d="M424 -350v758h178v-758h-178zM424 674v758h178v-758h-178z" />
<glyph unicode="&#xa7;" d="M45 793q0 101 72 170t178 69q38 0 61 -4q-125 110 -125 234q0 213 322 213h293v-318h-209v131h-102q-43 0 -67 -16.5t-24 -46.5q0 -48 80 -131l312 -320q81 -84 119 -153.5t38 -151.5q0 -111 -64 -180.5t-173 -69.5q-22 0 -45 2q58 -59 85 -109.5t27 -107.5 q0 -115 -79 -175t-236 -60h-346v323h209v-127h114q51 0 78 20.5t27 57.5q0 52 -80 135l-320 330q-145 151 -145 285zM272 799q0 -49 80 -135l178 -191q47 -49 82.5 -71.5t75.5 -22.5q42 0 67 22.5t25 61.5q0 47 -82 135l-178 190q-48 49 -83 72t-75 23q-42 0 -66 -22.5 t-24 -61.5z" />
<glyph unicode="&#xa8;" d="M240 1135v229h204v-229h-204zM580 1135v229h204v-229h-204z" />
<glyph unicode="&#xa9;" horiz-adv-x="1705" d="M113 731q0 146 57.5 281t163.5 243q212 215 518 215q309 0 526 -217q105 -105 160 -238.5t55 -283.5q0 -152 -54.5 -285.5t-158.5 -234.5q-109 -107 -245 -164t-283 -57q-146 0 -280 56.5t-240 162.5t-162.5 240.5t-56.5 281.5zM223 731q0 -257 187 -444q91 -91 205 -139 t239 -48q257 0 449 189q182 179 182 442q0 128 -46.5 243t-135.5 204q-184 184 -449 184t-444 -182q-91 -92 -139 -208t-48 -241zM457 725q0 209 110 332t291 123q147 0 243 -77t105 -200h-166q-10 73 -60 113.5t-130 40.5q-97 0 -154 -85t-57 -241q0 -153 58 -235t163 -82 q79 0 129 43.5t60 124.5h165q-8 -134 -106.5 -216.5t-253.5 -82.5q-182 0 -289.5 118.5t-107.5 323.5z" />
<glyph unicode="&#xaa;" horiz-adv-x="952" d="M41 1141q0 148 102.5 249t259.5 101q128 0 224 -90v72h278v-138h-100v-389h100v-139h-278v72q-91 -88 -224 -88q-159 0 -260.5 98.5t-101.5 251.5zM221 1139q0 -88 57.5 -143.5t149.5 -55.5q85 0 145 56t60 143q0 89 -59.5 144.5t-145.5 55.5q-92 0 -149.5 -55.5 t-57.5 -144.5z" />
<glyph unicode="&#xab;" horiz-adv-x="1107" d="M104 475l258 313h230l-262 -313l262 -311h-230zM537 475l258 313h231l-262 -313l262 -311h-231z" />
<glyph unicode="&#xac;" horiz-adv-x="1705" d="M254 696v166h1198v-502h-166v336h-1032z" />
<glyph unicode="&#xad;" horiz-adv-x="630" d="M61 371v211h508v-211h-508z" />
<glyph unicode="&#xae;" horiz-adv-x="1705" d="M113 731q0 148 58 285t165 244q210 210 516 210q312 0 530 -221q211 -214 211 -518q0 -313 -217 -524q-108 -105 -243.5 -161t-280.5 -56q-147 0 -282.5 57.5t-241.5 165.5q-104 106 -159.5 239t-55.5 279zM223 731q0 -256 183 -442q91 -91 204.5 -140t233.5 -49 q265 0 456 185q89 86 137 199t48 237q0 270 -180 453q-188 188 -451 188q-260 0 -440 -180q-92 -94 -141.5 -210.5t-49.5 -240.5zM551 330v829h319q173 0 262 -57.5t89 -167.5q0 -91 -48 -150t-137 -79l185 -375h-199l-164 346h-129v-346h-178zM729 786h117q99 0 145.5 30 t46.5 97q0 70 -49 102t-151 32h-109v-261z" />
<glyph unicode="&#xaf;" d="M236 1176v147h552v-147h-552z" />
<glyph unicode="&#xb0;" horiz-adv-x="673" d="M43 1163q0 124 86 210.5t209 86.5q122 0 208.5 -87t86.5 -210q0 -121 -86.5 -208t-210.5 -87q-123 0 -208 85.5t-85 209.5zM152 1165q0 -77 55 -131.5t131 -54.5q77 0 130.5 55t53.5 131q0 77 -54 131t-130 54q-77 0 -131.5 -54.5t-54.5 -130.5z" />
<glyph unicode="&#xb1;" horiz-adv-x="1705" d="M254 14v168h1198v-168h-1198zM254 707v165h514v334h170v-334h514v-165h-514v-334h-170v334h-514z" />
<glyph unicode="&#xb2;" horiz-adv-x="722" d="M57 575v119l308 310q69 71 102 122t33 95q0 50 -34 77t-97 27q-83 0 -115.5 -48t-32.5 -157v-24h-155q-3 24 -3 43q0 160 76.5 237.5t231.5 77.5q137 0 216 -64t79 -171q0 -41 -12.5 -78.5t-40.5 -74.5t-58 -67.5t-78 -74.5l-237 -219h278v122h156v-252h-617z" />
<glyph unicode="&#xb3;" horiz-adv-x="722" d="M53 848v31h162q2 -95 38.5 -141t111.5 -46q61 0 101 39t40 96q0 65 -46.5 102.5t-127.5 37.5h-15v106q4 0 11.5 -1t11.5 -1q74 0 113 35t39 100q0 55 -33.5 86t-91.5 31q-78 0 -110 -46.5t-32 -154.5v-8h-159q0 5 -1.5 19t-1.5 24q0 142 78.5 220.5t218.5 78.5 q136 0 214.5 -67t78.5 -179q0 -72 -35 -120.5t-100 -65.5q69 -15 109.5 -67.5t40.5 -127.5q0 -125 -80.5 -197.5t-222.5 -72.5q-153 0 -232.5 74t-79.5 215z" />
<glyph unicode="&#xb4;" d="M365 1087l204 349h222l-295 -349h-131z" />
<glyph unicode="&#xb5;" horiz-adv-x="1208" d="M-92 -430l297 1511h229l-125 -635q-12 -58 -12 -104q0 -97 46.5 -147t135.5 -50q125 0 195.5 91t109.5 290l109 555h225l-145 -739q-19 -100 -19 -133q0 -35 15.5 -50.5t52.5 -15.5q23 0 35 2l-33 -159q-67 -17 -150 -17q-149 0 -149 125v15q-41 -67 -108.5 -104.5 t-145.5 -37.5q-79 0 -136 25.5t-99 83.5l-99 -506h-229z" />
<glyph unicode="&#xb6;" d="M55 1130q0 156 106 252.5t285 96.5h523v-99h-117v-1380h-129v1380h-170v-1380h-129v784q-170 6 -269.5 101t-99.5 245z" />
<glyph unicode="&#xb7;" horiz-adv-x="546" d="M90 733q0 78 53 129t131 51q76 0 129.5 -52.5t53.5 -127.5t-53.5 -128.5t-129.5 -53.5q-79 0 -131.5 52t-52.5 130z" />
<glyph unicode="&#xb8;" d="M287 -315q165 -43 256 -43q108 0 108 75q0 42 -35 61t-108 19q-6 0 -20 -1t-21 -1v205h90v-94h16q236 0 236 -193q0 -90 -64 -140t-186 -50q-112 0 -272 43v119z" />
<glyph unicode="&#xb9;" horiz-adv-x="722" d="M174 575v119h111v623h-103v121h267v-744h110v-119h-385z" />
<glyph unicode="&#xba;" horiz-adv-x="868" d="M39 1141q0 148 112.5 249t282.5 101t281.5 -101t111.5 -249q0 -146 -111.5 -247t-281.5 -101q-169 0 -282 100.5t-113 247.5zM223 1141q0 -89 61 -147t150 -58q88 0 148.5 58t60.5 147q0 91 -60 149t-149 58t-150 -58t-61 -149z" />
<glyph unicode="&#xbb;" horiz-adv-x="1107" d="M80 164l264 311l-264 313h231l258 -313l-258 -311h-231zM514 164l262 311l-262 313h231l259 -313l-259 -311h-231z" />
<glyph unicode="&#xbc;" horiz-adv-x="1722" d="M166 633v110h106v582h-98v113h254v-695h104v-110h-366zM348 -29l879 1493h145l-880 -1493h-144zM1085 193v102l351 510h149v-512h109v-100h-109v-91h109v-102h-383v102h127v91h-353zM1223 293h215v199q0 63 16 159z" />
<glyph unicode="&#xbd;" horiz-adv-x="1722" d="M166 633v110h106v582h-98v113h254v-695h104v-110h-366zM348 -29l879 1493h145l-880 -1493h-144zM1085 0v111l295 288q66 66 97.5 114t31.5 89q0 46 -33 72t-94 26q-77 0 -108 -45t-31 -145v-25h-149v39q0 150 71.5 222.5t220.5 72.5q129 0 205 -60t76 -159 q0 -72 -43 -131.5t-137 -144.5l-225 -203h266v115h147v-236h-590z" />
<glyph unicode="&#xbe;" horiz-adv-x="1722" d="M51 887v28h154q1 -89 35.5 -131.5t105.5 -42.5q59 0 98 37t39 90q0 60 -44.5 94.5t-121.5 34.5h-14v101q4 0 11 -1t10 -1q71 0 108 33t37 94q0 51 -32 79.5t-87 28.5q-75 0 -105 -43t-30 -145v-8h-154v41q0 133 74.5 205.5t208.5 72.5q130 0 204.5 -62.5t74.5 -166.5 q0 -138 -127 -174q66 -13 103.5 -62t37.5 -121q0 -116 -77.5 -183t-213.5 -67q-146 0 -220.5 68.5t-74.5 200.5zM348 -29l879 1493h145l-880 -1493h-144zM1085 193v102l351 510h149v-512h109v-100h-109v-91h109v-102h-383v102h127v91h-353zM1223 293h215v199q0 63 16 159z " />
<glyph unicode="&#xbf;" horiz-adv-x="1218" d="M170 379q0 154 88 258.5t248 138.5v258h237v-436h-45q-140 0 -214 -60t-74 -167q0 -84 53.5 -134.5t146.5 -50.5q91 0 147 59t60 163h230q-19 -210 -133.5 -321.5t-309.5 -111.5q-198 0 -316 110.5t-118 293.5zM449 1321q0 75 54 128.5t130 53.5q79 0 130.5 -52 t51.5 -130t-52 -129t-130 -51q-77 0 -130.5 52.5t-53.5 127.5z" />
<glyph unicode="&#xc0;" horiz-adv-x="1402" d="M-6 0v205h117l372 1065h-159v205h755v-205h-170l365 -1065h135v-205h-559v205h158l-90 268h-463l-90 -268h157v-205h-528zM424 1962h221l205 -348h-131zM518 678h334l-166 500z" />
<glyph unicode="&#xc1;" horiz-adv-x="1402" d="M-6 0v205h117l372 1065h-159v205h755v-205h-170l365 -1065h135v-205h-559v205h158l-90 268h-463l-90 -268h157v-205h-528zM518 678h334l-166 500zM555 1614l205 348h221l-295 -348h-131z" />
<glyph unicode="&#xc2;" horiz-adv-x="1402" d="M-6 0v205h117l372 1065h-159v205h755v-205h-170l365 -1065h135v-205h-559v205h158l-90 268h-463l-90 -268h157v-205h-528zM406 1612l188 350h217l188 -350h-131l-166 211l-167 -211h-129zM518 678h334l-166 500z" />
<glyph unicode="&#xc3;" horiz-adv-x="1402" d="M-6 0v205h117l372 1065h-159v205h755v-205h-170l365 -1065h135v-205h-559v205h158l-90 268h-463l-90 -268h157v-205h-528zM401 1649q40 219 193 219q41 0 84 -13l88 -24q32 -8 51 -8q31 0 54 19.5t32 55.5h101q-24 -117 -71 -172t-128 -55q-32 0 -70 10l-84 25 q-38 10 -63 10q-65 0 -86 -67h-101zM518 678h334l-166 500z" />
<glyph unicode="&#xc4;" horiz-adv-x="1402" d="M-6 0v205h117l372 1065h-159v205h755v-205h-170l365 -1065h135v-205h-559v205h158l-90 268h-463l-90 -268h157v-205h-528zM430 1661v229h205v-229h-205zM518 678h334l-166 500zM770 1661v229h205v-229h-205z" />
<glyph unicode="&#xc5;" horiz-adv-x="1402" d="M-6 0v205h117l372 1065h-159v205h755v-205h-159l354 -1065h135v-205h-559v205h158l-93 268h-460l-90 -268h157v-205h-528zM481 1751q0 92 64.5 156.5t156.5 64.5q91 0 155.5 -64.5t64.5 -156.5q0 -91 -64.5 -155t-155.5 -64q-92 0 -156.5 63.5t-64.5 155.5zM518 678h336 l-168 500zM610 1751q0 -38 27 -65t65 -27q39 0 67 27t28 65t-28.5 66t-66.5 28t-65 -28t-27 -66z" />
<glyph unicode="&#xc6;" horiz-adv-x="2052" d="M-6 0v205h117l542 1065h-174v205h1467v-402h-230v195h-469v-369h393v-221h-393v-473h463v231h236v-436h-1121v205h156v268h-475l-133 -268h149v-205h-528zM606 678h375v608h-72z" />
<glyph unicode="&#xc7;" horiz-adv-x="1554" d="M66 737q0 225 99 400.5t269.5 270.5t382.5 95q131 0 234.5 -39.5t165.5 -111.5l-5 123h220v-492h-220q-44 133 -142.5 203.5t-235.5 70.5q-221 0 -357.5 -143.5t-136.5 -376.5t136 -375.5t358 -142.5q139 0 233 62.5t162 197.5h256q-60 -234 -236.5 -371t-414.5 -137 q-164 0 -307 58t-244 159.5t-159 243.5t-58 305zM592 -315q165 -43 256 -43q108 0 108 75q0 42 -35 61t-108 19q-6 0 -20 -1t-21 -1v205h90v-94h17q119 0 177 -47.5t58 -145.5q0 -90 -64 -140t-186 -50q-112 0 -272 43v119z" />
<glyph unicode="&#xc8;" horiz-adv-x="1280" d="M51 0v205h158v1065h-158v205h1123v-402h-230v195h-471v-369h395v-221h-395v-473h463v231h238v-436h-1123zM362 1962h222l204 -348h-131z" />
<glyph unicode="&#xc9;" horiz-adv-x="1280" d="M51 0v205h158v1065h-158v205h1123v-402h-230v195h-471v-369h395v-221h-395v-473h463v231h238v-436h-1123zM494 1614l204 348h222l-295 -348h-131z" />
<glyph unicode="&#xca;" horiz-adv-x="1280" d="M51 0v205h158v1065h-158v205h1123v-402h-230v195h-471v-369h395v-221h-395v-473h463v231h238v-436h-1123zM344 1612l188 350h218l188 -350h-131l-166 211l-168 -211h-129z" />
<glyph unicode="&#xcb;" horiz-adv-x="1280" d="M51 0v205h158v1065h-158v205h1123v-402h-230v195h-471v-369h395v-221h-395v-473h463v231h238v-436h-1123zM369 1661v229h204v-229h-204zM709 1661v229h204v-229h-204z" />
<glyph unicode="&#xcc;" horiz-adv-x="681" d="M51 0v205h158v1065h-158v205h580v-205h-158v-1065h158v-205h-580zM63 1962h222l204 -348h-131z" />
<glyph unicode="&#xcd;" horiz-adv-x="681" d="M51 0v205h158v1065h-158v205h580v-205h-158v-1065h158v-205h-580zM195 1614l204 348h222l-295 -348h-131z" />
<glyph unicode="&#xce;" horiz-adv-x="681" d="M45 1612l188 350h218l188 -350h-131l-166 211l-168 -211h-129zM51 0v205h158v1065h-158v205h580v-205h-158v-1065h158v-205h-580z" />
<glyph unicode="&#xcf;" horiz-adv-x="681" d="M51 0v205h158v1065h-158v205h580v-205h-158v-1065h158v-205h-580zM70 1661v229h204v-229h-204zM410 1661v229h204v-229h-204z" />
<glyph unicode="&#xd0;" horiz-adv-x="1542" d="M2 668v204h215v398h-156v205h592q407 0 617.5 -190t210.5 -548t-210.5 -547.5t-617.5 -189.5h-592v205h156v463h-215zM483 205h176q269 0 408 136t139 396t-139 396.5t-408 136.5h-176v-398h359v-204h-359v-463z" />
<glyph unicode="&#xd1;" horiz-adv-x="1488" d="M51 0v205h158v1065h-158v205h451l526 -963v758h-158v205h566v-205h-158v-1299h-223l-594 1116v-882h155v-205h-565zM444 1649q40 219 193 219q41 0 84 -13l88 -24q32 -8 51 -8q31 0 54 19.5t32 55.5h101q-24 -117 -71 -172t-128 -55q-32 0 -70 10l-84 25q-38 10 -63 10 q-65 0 -86 -67h-101z" />
<glyph unicode="&#xd2;" horiz-adv-x="1669" d="M61 737q0 213 99.5 388t277 276.5t396.5 101.5q309 0 516 -186q126 -113 192 -260.5t66 -319.5q0 -149 -52.5 -283.5t-150.5 -240.5q-222 -242 -571 -242q-163 0 -307.5 60t-246 162.5t-160.5 244t-59 299.5zM342 737q0 -225 142.5 -370.5t349.5 -145.5q103 0 193.5 38 t156.5 105t104.5 164t38.5 209q0 226 -142.5 371t-350.5 145q-100 0 -190 -38t-156.5 -104.5t-106 -164t-39.5 -209.5zM557 1962h221l205 -348h-131z" />
<glyph unicode="&#xd3;" horiz-adv-x="1669" d="M61 737q0 213 99.5 388t277 276.5t396.5 101.5q309 0 516 -186q126 -113 192 -260.5t66 -319.5q0 -149 -52.5 -283.5t-150.5 -240.5q-222 -242 -571 -242q-163 0 -307.5 60t-246 162.5t-160.5 244t-59 299.5zM342 737q0 -225 142.5 -370.5t349.5 -145.5q103 0 193.5 38 t156.5 105t104.5 164t38.5 209q0 226 -142.5 371t-350.5 145q-100 0 -190 -38t-156.5 -104.5t-106 -164t-39.5 -209.5zM688 1614l205 348h221l-295 -348h-131z" />
<glyph unicode="&#xd4;" horiz-adv-x="1669" d="M61 737q0 213 99.5 388t277 276.5t396.5 101.5q309 0 516 -186q126 -113 192 -260.5t66 -319.5q0 -149 -52.5 -283.5t-150.5 -240.5q-222 -242 -571 -242q-163 0 -307.5 60t-246 162.5t-160.5 244t-59 299.5zM342 737q0 -225 142.5 -370.5t349.5 -145.5q103 0 193.5 38 t156.5 105t104.5 164t38.5 209q0 226 -142.5 371t-350.5 145q-100 0 -190 -38t-156.5 -104.5t-106 -164t-39.5 -209.5zM539 1612l188 350h217l189 -350h-132l-165 211l-168 -211h-129z" />
<glyph unicode="&#xd5;" horiz-adv-x="1669" d="M61 737q0 213 99.5 388t277 276.5t396.5 101.5q309 0 516 -186q126 -113 192 -260.5t66 -319.5q0 -149 -52.5 -283.5t-150.5 -240.5q-222 -242 -571 -242q-163 0 -307.5 60t-246 162.5t-160.5 244t-59 299.5zM342 737q0 -225 142.5 -370.5t349.5 -145.5q103 0 193.5 38 t156.5 105t104.5 164t38.5 209q0 226 -142.5 371t-350.5 145q-100 0 -190 -38t-156.5 -104.5t-106 -164t-39.5 -209.5zM535 1649q40 219 192 219q41 0 84 -13l88 -24q32 -8 51 -8q31 0 54 19.5t32 55.5h101q-24 -117 -71 -172t-128 -55q-32 0 -70 10l-84 25q-38 10 -63 10 q-65 0 -86 -67h-100z" />
<glyph unicode="&#xd6;" horiz-adv-x="1669" d="M61 737q0 213 99.5 388t277 276.5t396.5 101.5q309 0 516 -186q126 -113 192 -260.5t66 -319.5q0 -149 -52.5 -283.5t-150.5 -240.5q-222 -242 -571 -242q-163 0 -307.5 60t-246 162.5t-160.5 244t-59 299.5zM342 737q0 -225 142.5 -370.5t349.5 -145.5q103 0 193.5 38 t156.5 105t104.5 164t38.5 209q0 226 -142.5 371t-350.5 145q-100 0 -190 -38t-156.5 -104.5t-106 -164t-39.5 -209.5zM563 1661v229h205v-229h-205zM903 1661v229h205v-229h-205z" />
<glyph unicode="&#xd7;" horiz-adv-x="1705" d="M287 152l458 458l-458 461l116 117l459 -459l461 459l117 -117l-459 -461l459 -458l-117 -119l-461 461l-459 -461z" />
<glyph unicode="&#xd8;" horiz-adv-x="1669" d="M61 737q0 213 99.5 388t277 276.5t396.5 101.5q248 0 417 -114l138 176h198l-215 -271q236 -233 236 -557q0 -302 -203 -524q-222 -242 -571 -242q-236 0 -418 115l-142 -180h-196l215 274q-232 241 -232 557zM332 737q0 -198 123 -354l635 803q-108 67 -244 67 q-222 0 -368 -144.5t-146 -371.5zM578 289q126 -68 256 -68q104 0 197 38t160.5 105t106.5 164t39 209q0 211 -127 353z" />
<glyph unicode="&#xd9;" horiz-adv-x="1521" d="M78 1270v205h577v-205h-155v-733q0 -165 56.5 -240.5t205.5 -75.5q146 0 203 75t57 241v733h-156v205h578v-205h-156v-703q0 -138 -14.5 -226t-63.5 -165q-129 -205 -448 -205q-292 0 -430 172q-59 73 -79 171.5t-20 252.5v703h-155zM483 1962h222l204 -348h-131z" />
<glyph unicode="&#xda;" horiz-adv-x="1521" d="M78 1270v205h577v-205h-155v-733q0 -165 56.5 -240.5t205.5 -75.5q146 0 203 75t57 241v733h-156v205h578v-205h-156v-703q0 -138 -14.5 -226t-63.5 -165q-129 -205 -448 -205q-292 0 -430 172q-59 73 -79 171.5t-20 252.5v703h-155zM614 1614l205 348h221l-295 -348 h-131z" />
<glyph unicode="&#xdb;" horiz-adv-x="1521" d="M78 1270v205h577v-205h-155v-733q0 -165 56.5 -240.5t205.5 -75.5q146 0 203 75t57 241v733h-156v205h578v-205h-156v-703q0 -138 -14.5 -226t-63.5 -165q-129 -205 -448 -205q-292 0 -430 172q-59 73 -79 171.5t-20 252.5v703h-155zM465 1612l188 350h217l189 -350h-131 l-166 211l-168 -211h-129z" />
<glyph unicode="&#xdc;" horiz-adv-x="1521" d="M78 1270v205h577v-205h-155v-733q0 -165 56.5 -240.5t205.5 -75.5q146 0 203 75t57 241v733h-156v205h578v-205h-156v-703q0 -138 -14.5 -226t-63.5 -165q-129 -205 -448 -205q-292 0 -430 172q-59 73 -79 171.5t-20 252.5v703h-155zM489 1661v229h205v-229h-205z M829 1661v229h205v-229h-205z" />
<glyph unicode="&#xdd;" horiz-adv-x="1343" d="M27 1270v205h538v-205h-116l225 -367l221 367h-133v205h536v-205h-118l-383 -590v-475h180v-205h-627v205h180v475l-387 590h-116zM524 1614l205 348h221l-295 -348h-131z" />
<glyph unicode="&#xde;" horiz-adv-x="1208" d="M51 0v205h158v1065h-158v205h580v-205h-158v-101h82q310 0 467.5 -110t157.5 -322q0 -209 -158 -320.5t-467 -111.5h-82v-100h191v-205h-613zM473 494h82q181 0 269.5 58.5t88.5 184.5t-89 186t-269 60h-82v-489z" />
<glyph unicode="&#xdf;" horiz-adv-x="1208" d="M49 0v199h131v774q0 136 21 230t70.5 160.5t133 98t207.5 31.5q197 0 304.5 -95.5t107.5 -267.5q0 -189 -190 -280q313 -98 313 -436q0 -199 -97.5 -318t-254.5 -119q-83 0 -162 31l33 185q47 -7 63 -7q85 0 129.5 62t44.5 182q0 307 -266 307q-27 0 -41 -2v178 q97 11 149 66t52 147q0 80 -50 130.5t-135 50.5q-43 0 -74.5 -9t-52.5 -29.5t-34.5 -45.5t-20.5 -65t-9.5 -80t-2.5 -97v-782h112v-199h-481z" />
<glyph unicode="&#xe0;" horiz-adv-x="1269" d="M53 477q0 211 137.5 355.5t346.5 144.5q169 0 299 -127v102h370v-198h-133v-555h133v-199h-370v102q-122 -125 -299 -125q-212 0 -348 141t-136 359zM295 475q0 -126 76.5 -205.5t197.5 -79.5q115 0 195 79.5t80 205.5t-80 206.5t-195 80.5q-122 0 -198 -80t-76 -207z M395 1436h221l205 -349h-131z" />
<glyph unicode="&#xe1;" horiz-adv-x="1269" d="M53 477q0 211 137.5 355.5t346.5 144.5q169 0 299 -127v102h370v-198h-133v-555h133v-199h-370v102q-122 -125 -299 -125q-212 0 -348 141t-136 359zM295 475q0 -126 76.5 -205.5t197.5 -79.5q115 0 195 79.5t80 205.5t-80 206.5t-195 80.5q-122 0 -198 -80t-76 -207z M526 1087l205 349h221l-295 -349h-131z" />
<glyph unicode="&#xe2;" horiz-adv-x="1269" d="M53 477q0 211 137.5 355.5t346.5 144.5q169 0 299 -127v102h370v-198h-133v-555h133v-199h-370v102q-122 -125 -299 -125q-212 0 -348 141t-136 359zM295 475q0 -126 76.5 -205.5t197.5 -79.5q115 0 195 79.5t80 205.5t-80 206.5t-195 80.5q-122 0 -198 -80t-76 -207z M377 1085l188 351h217l189 -351h-131l-166 211l-168 -211h-129z" />
<glyph unicode="&#xe3;" horiz-adv-x="1269" d="M53 477q0 211 137.5 355.5t346.5 144.5q169 0 299 -127v102h370v-198h-133v-555h133v-199h-370v102q-122 -125 -299 -125q-212 0 -348 141t-136 359zM295 475q0 -126 76.5 -205.5t197.5 -79.5q115 0 195 79.5t80 205.5t-80 206.5t-195 80.5q-122 0 -198 -80t-76 -207z M373 1122q40 219 192 219q44 0 84 -12l88 -24q36 -9 51 -9q31 0 54 20t32 56h101q-24 -117 -71 -172t-128 -55q-31 0 -69 10l-84 25q-38 10 -64 10q-65 0 -86 -68h-100z" />
<glyph unicode="&#xe4;" horiz-adv-x="1269" d="M53 477q0 211 137.5 355.5t346.5 144.5q169 0 299 -127v102h370v-198h-133v-555h133v-199h-370v102q-122 -125 -299 -125q-212 0 -348 141t-136 359zM295 475q0 -126 76.5 -205.5t197.5 -79.5q115 0 195 79.5t80 205.5t-80 206.5t-195 80.5q-122 0 -198 -80t-76 -207z M401 1135v229h205v-229h-205zM741 1135v229h205v-229h-205z" />
<glyph unicode="&#xe5;" horiz-adv-x="1269" d="M53 477q0 211 137.5 355.5t346.5 144.5q169 0 299 -127v102h370v-198h-133v-555h133v-199h-370v102q-122 -125 -299 -125q-212 0 -348 141t-136 359zM295 475q0 -126 76.5 -205.5t197.5 -79.5q115 0 195 79.5t80 205.5t-80 206.5t-195 80.5q-122 0 -198 -80t-76 -207z M395 1253q0 93 63.5 157.5t155.5 64.5q91 0 156.5 -65t65.5 -157q0 -90 -65.5 -154.5t-156.5 -64.5q-92 0 -155.5 63.5t-63.5 155.5zM522 1253q0 -38 27 -65t65 -27q39 0 67 27t28 65t-28.5 66.5t-66.5 28.5t-65 -28t-27 -67z" />
<glyph unicode="&#xe6;" horiz-adv-x="1810" d="M29 291q0 144 117 233.5t300 89.5q159 0 252 -75q0 6 1 18.5t1 17.5q0 109 -54.5 160t-172.5 51q-158 0 -278 -53l-80 166q156 78 358 78q250 0 389 -148q70 71 152.5 108.5t197.5 37.5q230 0 370 -148.5t140 -396.5v-24h-790q12 -109 87 -168.5t202 -59.5 q80 0 142.5 27.5t96.5 75.5h236q-41 -145 -167.5 -225.5t-314.5 -80.5q-256 0 -389 154q-170 -154 -399 -154q-181 0 -289 88.5t-108 227.5zM248 303q0 -63 58.5 -103t160.5 -40q96 0 154.5 40t58.5 101q0 60 -58.5 101.5t-152.5 41.5q-105 0 -163 -39t-58 -102zM932 573 h553q-29 98 -99 149.5t-174 51.5q-107 0 -181 -53t-99 -148z" />
<glyph unicode="&#xe7;" horiz-adv-x="1056" d="M51 477q0 219 136.5 360.5t336.5 141.5q151 0 254 -92v65h187v-319h-152q-62 77 -122.5 110t-149.5 33q-112 0 -182 -80t-70 -219q0 -125 75.5 -210t190.5 -85q91 0 159 36t142 122l148 -125q-184 -240 -447 -240q-218 0 -362 142.5t-144 359.5zM319 -315 q165 -43 256 -43q109 0 109 75q0 42 -35 61t-108 19q-6 0 -20 -1t-21 -1v205h90v-94h16q236 0 236 -193q0 -90 -64 -140t-186 -50q-113 0 -273 43v119z" />
<glyph unicode="&#xe8;" horiz-adv-x="1140" d="M53 475q0 220 148.5 360t376.5 140q229 0 368 -148t139 -397v-24h-788q12 -109 87 -168.5t202 -59.5q80 0 142.5 27.5t96.5 75.5h234q-41 -145 -166 -225.5t-313 -80.5q-239 0 -383 139t-144 361zM297 573h553q-29 98 -98.5 149.5t-173.5 51.5q-108 0 -182 -53t-99 -148z M305 1436h221l205 -349h-131z" />
<glyph unicode="&#xe9;" horiz-adv-x="1140" d="M53 475q0 220 148.5 360t376.5 140q229 0 368 -148t139 -397v-24h-788q12 -109 87 -168.5t202 -59.5q80 0 142.5 27.5t96.5 75.5h234q-41 -145 -166 -225.5t-313 -80.5q-239 0 -383 139t-144 361zM297 573h553q-29 98 -98.5 149.5t-173.5 51.5q-108 0 -182 -53t-99 -148z M436 1087l205 349h221l-295 -349h-131z" />
<glyph unicode="&#xea;" horiz-adv-x="1140" d="M53 475q0 220 148.5 360t376.5 140q229 0 368 -148t139 -397v-24h-788q12 -109 87 -168.5t202 -59.5q80 0 142.5 27.5t96.5 75.5h234q-41 -145 -166 -225.5t-313 -80.5q-239 0 -383 139t-144 361zM287 1085l188 351h217l189 -351h-131l-166 211l-168 -211h-129zM297 573 h553q-29 98 -98.5 149.5t-173.5 51.5q-108 0 -182 -53t-99 -148z" />
<glyph unicode="&#xeb;" horiz-adv-x="1140" d="M53 475q0 220 148.5 360t376.5 140q229 0 368 -148t139 -397v-24h-788q12 -109 87 -168.5t202 -59.5q80 0 142.5 27.5t96.5 75.5h234q-41 -145 -166 -225.5t-313 -80.5q-239 0 -383 139t-144 361zM297 573h553q-29 98 -98.5 149.5t-173.5 51.5q-108 0 -182 -53t-99 -148z M311 1135v229h205v-229h-205zM651 1135v229h205v-229h-205z" />
<glyph unicode="&#xec;" horiz-adv-x="598" d="M-10 1436h221l205 -349h-131zM45 0v199h145v555h-143v198h381v-753h137v-199h-520z" />
<glyph unicode="&#xed;" horiz-adv-x="598" d="M45 0v199h145v555h-143v198h381v-753h137v-199h-520zM121 1087l205 349h221l-295 -349h-131z" />
<glyph unicode="&#xee;" horiz-adv-x="598" d="M-29 1085l189 351h217l188 -351h-131l-166 211l-168 -211h-129zM45 0v199h145v555h-143v198h381v-753h137v-199h-520z" />
<glyph unicode="&#xef;" horiz-adv-x="598" d="M-4 1135v229h205v-229h-205zM45 0v199h145v555h-143v198h381v-753h137v-199h-520zM336 1135v229h205v-229h-205z" />
<glyph unicode="&#xf0;" horiz-adv-x="1157" d="M49 469q0 135 67.5 249.5t182 180.5t246.5 66q33 0 108 -11l-133 174l-348 -67l-37 149l281 56l-150 209h234l129 -164l297 59l37 -149l-228 -50l176 -229q100 -128 148.5 -229.5t48.5 -231.5q0 -220 -150 -362t-380 -142q-228 0 -378.5 141.5t-150.5 350.5zM297 477 q0 -128 81.5 -210.5t199.5 -82.5t199 82.5t81 210.5q0 129 -80.5 212t-199.5 83q-118 0 -199.5 -83.5t-81.5 -211.5z" />
<glyph unicode="&#xf1;" horiz-adv-x="1224" d="M57 0v199h133v555h-133v198h371v-129q84 79 164 116.5t172 37.5q152 0 224.5 -82.5t72.5 -249.5v-446h133v-199h-504v199h133v338v55q0 78 -39 120t-110 42q-123 0 -246 -144v-411h133v-199h-504zM332 1122q40 219 192 219q44 0 84 -12l88 -24q36 -9 52 -9q31 0 54 20 t32 56h100q-24 -117 -71 -172t-128 -55q-31 0 -69 10l-84 25q-38 10 -64 10q-65 0 -86 -68h-100z" />
<glyph unicode="&#xf2;" horiz-adv-x="1157" d="M51 477q0 209 150.5 354.5t376.5 145.5q227 0 376.5 -145t149.5 -355q0 -137 -67 -250.5t-188 -180t-271 -66.5q-226 0 -376.5 143.5t-150.5 353.5zM297 477q0 -127 82 -210t199 -83q118 0 199 82.5t81 210.5q0 130 -80.5 212.5t-199.5 82.5t-200 -83t-81 -212zM301 1436 h221l205 -349h-131z" />
<glyph unicode="&#xf3;" horiz-adv-x="1157" d="M51 477q0 209 150.5 354.5t376.5 145.5q227 0 376.5 -145t149.5 -355q0 -137 -67 -250.5t-188 -180t-271 -66.5q-226 0 -376.5 143.5t-150.5 353.5zM297 477q0 -127 82 -210t199 -83q118 0 199 82.5t81 210.5q0 130 -80.5 212.5t-199.5 82.5t-200 -83t-81 -212zM432 1087 l205 349h221l-295 -349h-131z" />
<glyph unicode="&#xf4;" horiz-adv-x="1157" d="M51 477q0 209 150.5 354.5t376.5 145.5q227 0 376.5 -145t149.5 -355q0 -137 -67 -250.5t-188 -180t-271 -66.5q-226 0 -376.5 143.5t-150.5 353.5zM283 1085l188 351h217l189 -351h-132l-165 211l-168 -211h-129zM297 477q0 -127 82 -210t199 -83q118 0 199 82.5 t81 210.5q0 130 -80.5 212.5t-199.5 82.5t-200 -83t-81 -212z" />
<glyph unicode="&#xf5;" horiz-adv-x="1157" d="M51 477q0 209 150.5 354.5t376.5 145.5q227 0 376.5 -145t149.5 -355q0 -137 -67 -250.5t-188 -180t-271 -66.5q-226 0 -376.5 143.5t-150.5 353.5zM279 1122q40 219 192 219q44 0 84 -12l88 -24q36 -9 51 -9q31 0 54 20t32 56h101q-24 -117 -71 -172t-128 -55 q-32 0 -70 10l-84 25q-38 10 -63 10q-65 0 -86 -68h-100zM297 477q0 -127 82 -210t199 -83q118 0 199 82.5t81 210.5q0 130 -80.5 212.5t-199.5 82.5t-200 -83t-81 -212z" />
<glyph unicode="&#xf6;" horiz-adv-x="1157" d="M51 477q0 209 150.5 354.5t376.5 145.5q227 0 376.5 -145t149.5 -355q0 -137 -67 -250.5t-188 -180t-271 -66.5q-226 0 -376.5 143.5t-150.5 353.5zM297 477q0 -127 82 -210t199 -83q118 0 199 82.5t81 210.5q0 130 -80.5 212.5t-199.5 82.5t-200 -83t-81 -212zM307 1135 v229h205v-229h-205zM647 1135v229h205v-229h-205z" />
<glyph unicode="&#xf7;" horiz-adv-x="1705" d="M254 528v166h1198v-166h-1198zM717 229q0 57 40.5 97.5t96.5 40.5q57 0 97 -40.5t40 -97.5q0 -56 -39.5 -95.5t-97.5 -39.5t-97.5 39t-39.5 96zM717 989q0 57 40.5 98t96.5 41q57 0 97 -41t40 -98q0 -56 -39.5 -95.5t-97.5 -39.5t-97.5 39t-39.5 96z" />
<glyph unicode="&#xf8;" horiz-adv-x="1138" d="M6 -147l205 262q-152 149 -152 362q0 211 145.5 355.5t364.5 144.5q152 0 262 -68l154 193h154l-211 -266q151 -154 151 -359q0 -138 -65.5 -251.5t-182.5 -179.5t-262 -66q-167 0 -262 63l-147 -190h-154zM303 477q0 -95 53 -184l346 438q-42 39 -133 39 q-113 0 -189.5 -81.5t-76.5 -211.5zM434 219q72 -35 135 -35q111 0 188 82t77 211q0 99 -54 182z" />
<glyph unicode="&#xf9;" horiz-adv-x="1218" d="M33 754v198h370v-536v-56q0 -77 39.5 -119t110.5 -42q124 0 246 143v412h-133v198h370v-753h131v-199h-368v129q-84 -78 -165 -116t-173 -38q-152 0 -223.5 82t-71.5 250v447h-133zM307 1436h221l205 -349h-131z" />
<glyph unicode="&#xfa;" horiz-adv-x="1218" d="M33 754v198h370v-536v-56q0 -77 39.5 -119t110.5 -42q124 0 246 143v412h-133v198h370v-753h131v-199h-368v129q-84 -78 -165 -116t-173 -38q-152 0 -223.5 82t-71.5 250v447h-133zM438 1087l205 349h221l-295 -349h-131z" />
<glyph unicode="&#xfb;" horiz-adv-x="1218" d="M33 754v198h370v-536v-56q0 -77 39.5 -119t110.5 -42q124 0 246 143v412h-133v198h370v-753h131v-199h-368v129q-84 -78 -165 -116t-173 -38q-152 0 -223.5 82t-71.5 250v447h-133zM289 1085l188 351h217l189 -351h-131l-166 211l-168 -211h-129z" />
<glyph unicode="&#xfc;" horiz-adv-x="1218" d="M33 754v198h370v-536v-56q0 -77 39.5 -119t110.5 -42q124 0 246 143v412h-133v198h370v-753h131v-199h-368v129q-84 -78 -165 -116t-173 -38q-152 0 -223.5 82t-71.5 250v447h-133zM313 1135v229h205v-229h-205zM653 1135v229h205v-229h-205z" />
<glyph unicode="&#xfd;" horiz-adv-x="1161" d="M14 754v198h486v-198h-127l205 -490l213 490h-123v198h477v-198h-117l-467 -981h150v-199h-535v199h150l125 252l-318 729h-119zM434 1087l205 349h221l-295 -349h-131z" />
<glyph unicode="&#xfe;" horiz-adv-x="1265" d="M57 -227h133v1503h-133v199h371v-625q130 127 299 127q138 0 249 -66.5t172.5 -181t61.5 -252.5q0 -219 -135 -359.5t-348 -140.5q-168 0 -299 113v-317h141v-199h-512v199zM420 475q0 -125 79 -205t195 -80t195.5 79t79.5 206q0 126 -80 206.5t-195 80.5t-194.5 -80.5 t-79.5 -206.5z" />
<glyph unicode="&#xff;" horiz-adv-x="1161" d="M14 754v198h486v-198h-127l205 -490l213 490h-123v198h477v-198h-117l-467 -981h150v-199h-535v199h150l125 252l-318 729h-119zM309 1135v229h205v-229h-205zM649 1135v229h205v-229h-205z" />
<glyph unicode="&#x152;" horiz-adv-x="2095" d="M61 737q0 217 91 382t260 259q103 57 227.5 77t306.5 20h1043v-402h-230v195h-469v-369h393v-221h-393v-473h463v231h236v-436h-1041q-187 0 -308 17t-230 77q-163 90 -256 260t-93 383zM334 739q0 -244 138 -389t370 -145q61 0 96 9t54.5 34.5t25.5 59.5t6 95v756 q0 68 -39.5 90.5t-148.5 22.5q-237 0 -369.5 -139.5t-132.5 -393.5z" />
<glyph unicode="&#x153;" horiz-adv-x="1970" d="M59 477q0 138 67 252.5t186 181t266 66.5q268 0 395 -211q138 209 397 209q230 0 369 -148.5t139 -396.5v-24h-788q12 -109 86.5 -168.5t201.5 -59.5q80 0 143 27.5t97 75.5h233q-42 -144 -165.5 -225t-313.5 -81q-125 0 -221 48.5t-178 152.5q-76 -101 -172.5 -148.5 t-222.5 -47.5q-147 0 -266 66t-186 179.5t-67 251.5zM307 477q0 -129 79 -211t192 -82t190.5 82t77.5 211q0 130 -77 211.5t-191 81.5q-115 0 -193 -81.5t-78 -211.5zM1090 573h552q-29 98 -98.5 149.5t-173.5 51.5q-107 0 -181 -53t-99 -148z" />
<glyph unicode="&#x178;" horiz-adv-x="1343" d="M27 1270v205h538v-205h-116l225 -367l221 367h-133v205h536v-205h-118l-383 -590v-475h180v-205h-627v205h180v475l-387 590h-116zM399 1661v229h205v-229h-205zM739 1661v229h205v-229h-205z" />
<glyph unicode="&#x2c6;" d="M215 1085l188 351h218l188 -351h-131l-166 211l-168 -211h-129z" />
<glyph unicode="&#x2dc;" d="M211 1122q40 219 192 219q44 0 84 -12l88 -24q36 -9 52 -9q31 0 54 20t32 56h100q-24 -117 -71 -172t-128 -55q-31 0 -69 10l-84 25q-38 10 -64 10q-65 0 -86 -68h-100z" />
<glyph unicode="&#x2000;" horiz-adv-x="986" />
<glyph unicode="&#x2001;" horiz-adv-x="1972" />
<glyph unicode="&#x2002;" horiz-adv-x="986" />
<glyph unicode="&#x2003;" horiz-adv-x="1972" />
<glyph unicode="&#x2004;" horiz-adv-x="657" />
<glyph unicode="&#x2005;" horiz-adv-x="493" />
<glyph unicode="&#x2006;" horiz-adv-x="328" />
<glyph unicode="&#x2007;" horiz-adv-x="328" />
<glyph unicode="&#x2008;" horiz-adv-x="246" />
<glyph unicode="&#x2009;" horiz-adv-x="394" />
<glyph unicode="&#x200a;" horiz-adv-x="109" />
<glyph unicode="&#x2010;" horiz-adv-x="630" d="M61 371v211h508v-211h-508z" />
<glyph unicode="&#x2011;" horiz-adv-x="630" d="M61 371v211h508v-211h-508z" />
<glyph unicode="&#x2012;" horiz-adv-x="630" d="M61 371v211h508v-211h-508z" />
<glyph unicode="&#x2013;" d="M0 397v158h1024v-158h-1024z" />
<glyph unicode="&#x2014;" horiz-adv-x="2048" d="M0 397v158h2048v-158h-2048z" />
<glyph unicode="&#x2018;" horiz-adv-x="460" d="M35 1049l131 426h258l-143 -426h-246z" />
<glyph unicode="&#x2019;" horiz-adv-x="460" d="M35 1049l131 426h258l-143 -426h-246z" />
<glyph unicode="&#x201a;" horiz-adv-x="460" d="M35 -186l131 426h258l-143 -426h-246z" />
<glyph unicode="&#x201c;" horiz-adv-x="907" d="M33 1049l131 426h258l-143 -426h-246zM481 1049l131 426h258l-143 -426h-246z" />
<glyph unicode="&#x201d;" horiz-adv-x="907" d="M35 1049l131 426h258l-143 -426h-246zM481 1049l131 426h260l-145 -426h-246z" />
<glyph unicode="&#x201e;" horiz-adv-x="907" d="M35 -186l131 426h258l-143 -426h-246zM481 -186l131 426h260l-145 -426h-246z" />
<glyph unicode="&#x2022;" horiz-adv-x="1208" d="M307 762q0 123 87 209t210 86q122 0 208.5 -86t86.5 -209q0 -122 -87 -209.5t-210 -87.5t-209 87t-86 210z" />
<glyph unicode="&#x2026;" horiz-adv-x="2048" d="M158 158q0 78 53 129t131 51q76 0 129 -52.5t53 -127.5t-53 -129t-129 -54q-79 0 -131.5 52.5t-52.5 130.5zM840 158q0 78 53 129t131 51q76 0 129 -52.5t53 -127.5t-53 -129t-129 -54q-79 0 -131.5 52.5t-52.5 130.5zM1524 158q0 78 53 129t131 51q76 0 129 -52.5 t53 -127.5t-53 -129t-129 -54q-79 0 -131.5 52.5t-52.5 130.5z" />
<glyph unicode="&#x202f;" horiz-adv-x="394" />
<glyph unicode="&#x2039;" horiz-adv-x="673" d="M104 475l258 313h230l-262 -313l262 -311h-230z" />
<glyph unicode="&#x203a;" horiz-adv-x="673" d="M80 164l264 311l-264 313h231l258 -313l-258 -311h-231z" />
<glyph unicode="&#x205f;" horiz-adv-x="493" />
<glyph unicode="&#x2122;" horiz-adv-x="1705" d="M225 1366v94h467v-94h-168v-448h-129v448h-170zM809 918v542h170l141 -360l133 360h170v-542h-114v428l-160 -428h-59l-166 428v-428h-115z" />
<glyph unicode="&#x25fc;" horiz-adv-x="952" d="M0 0v952h952v-952h-952z" />
<glyph unicode="&#xfb01;" horiz-adv-x="1265" d="M45 0v199h158v555h-158v198h158v129q0 82 4.5 135.5t18 101.5t37 75t63 47t93.5 27.5t132 7.5q36 0 65 -2v-189h-53q-44 0 -69 -7t-37.5 -27.5t-15.5 -44.5t-3 -70v-66v-117h166v-198h-166v-555h166v-199h-559zM715 0v199h143v555h-143v198h381v-753h139v-199h-520z M780 1108v252h316v-252h-316z" />
<glyph unicode="&#xfb02;" horiz-adv-x="1261" d="M45 0v199h158v555h-158v198h158v129q0 82 4.5 135.5t18 101.5t37 75t63 47t93.5 27.5t132 7.5q36 0 65 -2v-189h-53q-44 0 -69 -7t-37.5 -27.5t-15.5 -44.5t-3 -70v-66v-117h166v-198h-166v-555h166v-199h-559zM715 0v199h143v1077h-143v199h381v-1276h139v-199h-520z " />
</font>
</defs>
</svg>
