<?xml version="1.0" standalone="no"?>
<!DOCTYPE svg PUBLIC "-//W3C//DTD SVG 1.1//EN" "http://www.w3.org/Graphics/SVG/1.1/DTD/svg11.dtd" >
<svg xmlns="http://www.w3.org/2000/svg" xmlns:xlink="http://www.w3.org/1999/xlink" version="1.1">
<metadata></metadata>
<defs>
<font id="geometric_slabserif_703XBd" horiz-adv-x="1138" >
<font-face units-per-em="2048" ascent="1638" descent="-410" />
<missing-glyph horiz-adv-x="569" />
<glyph horiz-adv-x="0" />
<glyph horiz-adv-x="682" />
<glyph unicode=" "  horiz-adv-x="569" />
<glyph unicode="&#x09;" horiz-adv-x="569" />
<glyph unicode="&#xa0;" horiz-adv-x="569" />
<glyph unicode="!" horiz-adv-x="735" d="M160 180q0 88 59.5 146.5t147.5 58.5q89 0 147.5 -58.5t58.5 -146.5t-58.5 -146.5t-147.5 -58.5q-88 0 -147.5 58.5t-59.5 146.5zM172 1475h389l-33 -951h-323z" />
<glyph unicode="&#x22;" horiz-adv-x="712" d="M76 877v561h219v-561h-219zM416 877v561h223v-561h-223z" />
<glyph unicode="#" horiz-adv-x="1574" d="M23 381l86 231h270l82 230h-283l86 229h279l141 395h250l-139 -395h235l141 395h250l-139 -395h270l-86 -229h-268l-80 -230h277l-84 -231h-275l-141 -393h-250l139 393h-235l-141 -393h-250l139 393h-274zM625 610h245l82 232h-245z" />
<glyph unicode="$" d="M61 956q0 180 116 295t310 121v129h144v-137q115 -26 184 -111l-4 101h231v-385h-245q-55 119 -166 164v-273q485 -73 485 -442q0 -198 -131.5 -322t-353.5 -127v-166h-144v187q-109 25 -172 129v-119h-229v426h246q67 -140 155 -168v287q-426 80 -426 411zM350 1006 q0 -117 137 -129v266q-66 -7 -101.5 -43.5t-35.5 -93.5zM631 233q76 3 124 45.5t48 102.5q0 56 -45 94t-127 47v-289z" />
<glyph unicode="%" horiz-adv-x="1849" d="M41 1057q0 159 111 269t270 110t270 -109.5t111 -269.5q0 -161 -110.5 -270t-270.5 -109q-159 0 -270 110t-111 269zM301 1057q0 -51 35 -87t86 -36t87 35.5t36 87.5t-36 87.5t-87 35.5t-86 -35.5t-35 -87.5zM379 -29l911 1493h180l-911 -1493h-180zM1047 379 q0 160 110 270.5t268 110.5q159 0 270 -110t111 -271t-110.5 -270t-270.5 -109q-159 0 -268.5 110t-109.5 269zM1305 379q0 -51 35.5 -87t86.5 -36t86 35.5t35 87.5t-35 87.5t-86 35.5t-86.5 -35.5t-35.5 -87.5z" />
<glyph unicode="&#x26;" horiz-adv-x="1521" d="M51 432q0 128 60.5 229.5t187.5 188.5q-135 138 -135 303q0 157 103.5 253.5t279.5 96.5q174 0 277.5 -94t103.5 -248q0 -201 -217 -336l262 -309q90 97 90 205v8h-72v266h461v-266h-76q-24 -120 -74 -220t-137 -190l27 -24h260v-295h-397l-103 121q-101 -78 -204 -114 t-224 -36q-212 0 -342.5 127.5t-130.5 333.5zM375 477q0 -88 61 -145.5t156 -57.5q81 0 166 58l-291 325q-92 -89 -92 -180zM436 1159q0 -88 103 -160q110 64 110 158q0 49 -29 79t-75 30q-47 0 -78 -31t-31 -76z" />
<glyph unicode="'" horiz-adv-x="370" d="M76 877v561h219v-561h-219z" />
<glyph unicode="(" horiz-adv-x="868" d="M186 571q0 512 316 932l270 -151q-120 -194 -176.5 -382.5t-56.5 -398.5q0 -209 56.5 -396.5t176.5 -381.5l-270 -151q-316 423 -316 929z" />
<glyph unicode=")" horiz-adv-x="868" d="M96 -207q119 193 175.5 381t56.5 397q0 211 -56.5 399.5t-175.5 381.5l269 151q317 -421 317 -932q0 -505 -317 -929z" />
<glyph unicode="*" d="M139 1112l78 207l279 -145l-33 301h223l-39 -301l275 145l75 -207l-313 -84l236 -207l-168 -141l-185 250l-180 -254l-168 147l236 205z" />
<glyph unicode="+" horiz-adv-x="1705" d="M254 496v231h481v494h238v-494h479v-231h-479v-496h-238v496h-481z" />
<glyph unicode="," horiz-adv-x="569" d="M27 -219l147 508h322l-156 -508h-313z" />
<glyph unicode="-" horiz-adv-x="634" d="M45 346v328h547v-328h-547z" />
<glyph unicode="." horiz-adv-x="569" d="M78 180q0 88 59.5 146.5t147.5 58.5q89 0 148 -58.5t59 -146.5t-59 -146.5t-148 -58.5q-88 0 -147.5 58.5t-59.5 146.5z" />
<glyph unicode="/" horiz-adv-x="788" d="M53 -190l527 1693h206l-528 -1693h-205z" />
<glyph unicode="0" d="M90 537v364q0 126 12.5 206.5t57.5 149.5q135 207 407 207q277 0 412 -207q32 -49 48 -111.5t19 -110.5t3 -134v-364q0 -86 -3 -134t-19 -111t-48 -112q-66 -102 -171 -155.5t-241 -53.5q-271 0 -407 209q-45 69 -57.5 150t-12.5 207zM440 549q0 -125 28 -180.5t99 -55.5 q72 0 100.5 56t28.5 180v338q0 124 -28.5 180.5t-100.5 56.5q-70 0 -98.5 -57t-28.5 -180v-338z" />
<glyph unicode="1" d="M244 0v268h149v901h-149v267h501v-1168h154v-268h-655z" />
<glyph unicode="2" d="M74 0v301l362 367q137 139 197.5 220.5t60.5 147.5q0 54 -33.5 86.5t-89.5 32.5q-68 0 -106.5 -42t-38.5 -118v-22h-350v24q0 219 131 343t362 124q218 0 345.5 -113t127.5 -300q0 -90 -35 -177t-110.5 -179t-176 -183t-247.5 -205h301v88h289v-395h-989z" />
<glyph unicode="3" d="M61 436q0 7 1 22.5t1 22.5h338v-14q0 -91 39.5 -137.5t116.5 -46.5q67 0 110.5 46t43.5 120q0 87 -62.5 123t-197.5 36h-21v262h21q126 0 183.5 31.5t57.5 120.5q0 60 -39 96.5t-104 36.5q-72 0 -114 -42.5t-42 -117.5v-20h-313v10q0 230 127 354.5t362 124.5 q215 0 342 -111.5t127 -287.5q0 -116 -68 -195.5t-196 -111.5q138 -15 217.5 -108t79.5 -240q0 -195 -138 -317t-370 -122q-233 0 -367.5 124t-134.5 341z" />
<glyph unicode="4" d="M43 381v194l440 861h461v-813h129v-242h-129v-141h129v-240h-667v240h206v141h-569zM332 623h280v299q0 122 15 295z" />
<glyph unicode="5" d="M96 383q0 45 2 104h338v-26q0 -95 27 -137.5t98 -42.5q57 0 88 40.5t31 118.5v117q0 69 -39 95t-131 26h-373v758h821v-308h-520v-182q119 49 250 49q178 0 260 -90.5t82 -281.5v-199q0 -230 -117.5 -341.5t-361.5 -111.5q-246 0 -350.5 95t-104.5 317z" />
<glyph unicode="6" d="M109 510v418q0 131 13 212.5t50 139.5q63 95 164 139.5t250 44.5q210 0 328 -100.5t118 -278.5v-20h-338q-6 49 -36.5 77.5t-73.5 28.5q-78 0 -103.5 -58t-25.5 -195v-76q113 125 276 125q158 0 239 -85t81 -251v-221q0 -214 -119.5 -326.5t-345.5 -112.5 q-292 0 -414 185q-37 58 -50 140.5t-13 213.5zM455 440q0 -164 123 -164q62 0 91 40t29 124v111q0 84 -29 124t-91 40q-123 0 -123 -164v-111z" />
<glyph unicode="7" d="M121 934v502h938v-361l-471 -1075h-385l522 1128h-311v-194h-293z" />
<glyph unicode="8" d="M78 430q0 129 66 220.5t178 117.5q-213 81 -213 309q0 173 124 281t336 108t337.5 -108t125.5 -281q0 -228 -213 -309q112 -26 178 -117.5t66 -220.5q0 -213 -131.5 -336t-362.5 -123q-229 0 -360 123t-131 336zM406 453q0 -69 47 -118.5t116 -49.5t117.5 49.5 t48.5 118.5q0 70 -47.5 117.5t-118.5 47.5q-69 0 -116 -47.5t-47 -117.5zM418 1024q0 -65 43.5 -108.5t107.5 -43.5q65 0 108.5 44t43.5 108t-43.5 108t-108.5 44q-64 0 -107.5 -43.5t-43.5 -108.5z" />
<glyph unicode="9" d="M88 807v221q0 213 118.5 324.5t344.5 111.5q149 0 250 -44.5t164 -139.5q38 -58 51.5 -141t13.5 -211v-418q0 -129 -14 -212.5t-51 -141.5q-122 -185 -414 -185q-210 0 -328.5 101t-118.5 278v21h338q6 -49 36.5 -77t74.5 -28q77 0 103 58.5t26 195.5v74 q-111 -123 -274 -123q-158 0 -239 85t-81 251zM438 885q0 -164 123 -164t123 164v112q0 164 -123 164t-123 -164v-112z" />
<glyph unicode=":" horiz-adv-x="706" d="M147 180q0 88 58.5 146.5t146.5 58.5q89 0 148 -58.5t59 -146.5t-59 -146.5t-148 -58.5q-88 0 -146.5 58.5t-58.5 146.5zM147 791q0 88 58.5 146t146.5 58q89 0 148 -58t59 -146t-59 -146.5t-148 -58.5q-88 0 -146.5 58.5t-58.5 146.5z" />
<glyph unicode=";" horiz-adv-x="706" d="M45 -219l150 508h321l-156 -508h-315zM162 791q0 87 59.5 145.5t147.5 58.5q89 0 147.5 -58t58.5 -146t-58.5 -146.5t-147.5 -58.5q-88 0 -147.5 58.5t-59.5 146.5z" />
<glyph unicode="&#x3c;" horiz-adv-x="1705" d="M264 494v233l1178 487v-253l-854 -351l854 -348v-254z" />
<glyph unicode="=" horiz-adv-x="1705" d="M254 272v230h1198v-230h-1198zM254 719v231h1198v-231h-1198z" />
<glyph unicode="&#x3e;" horiz-adv-x="1705" d="M264 8v254l854 348l-854 351v253l1178 -487v-233z" />
<glyph unicode="?" horiz-adv-x="1232" d="M98 1081q0 83 47.5 166t135.5 150q139 106 333 106q219 0 354.5 -126t135.5 -328q0 -183 -97.5 -297.5t-263.5 -126.5v-101h-340v359q6 0 24.5 -1t31.5 -1q140 0 205 41.5t65 134.5q0 133 -127 133q-65 0 -103.5 -41t-39.5 -111h-357q-4 24 -4 43zM365 180q0 88 58 146.5 t146 58.5q89 0 148 -58.5t59 -146.5t-59 -146.5t-148 -58.5q-88 0 -146 58.5t-58 146.5z" />
<glyph unicode="@" horiz-adv-x="2048" d="M82 520q0 342 209 598q148 182 359 277.5t468 95.5q173 0 323 -47t257 -131q270 -212 270 -549q0 -167 -65.5 -307t-190.5 -240q-142 -115 -330 -115q-212 0 -221 160q-57 -83 -127.5 -120.5t-167.5 -37.5q-163 0 -247 87.5t-84 257.5q0 161 66 291.5t178 203t247 72.5 q152 0 229 -123l52 92h206l-153 -610q-4 -24 -4 -33q0 -59 63 -59q89 0 168.5 65.5t127.5 176.5t48 237q0 237 -178.5 389t-468.5 152q-296 0 -504 -146q-155 -110 -239 -274.5t-84 -356.5q0 -302 203 -481.5t544 -179.5q336 0 596 186l97 -135q-309 -233 -693 -233 q-389 0 -643 194q-311 241 -311 643zM778 444q0 -84 35 -129t98 -45q83 0 147 58.5t89 158.5l51 209q-9 76 -50.5 116t-109.5 40q-102 0 -181 -121.5t-79 -286.5z" />
<glyph unicode="A" horiz-adv-x="1554" d="M4 0v295h125l274 885h-145v295h1038v-295h-143l272 -885h127v-295h-645v295h131l-59 199h-404l-55 -199h129v-295h-645zM635 756h285l-144 467z" />
<glyph unicode="B" horiz-adv-x="1345" d="M37 0v295h149v885h-149v295h727q233 0 358 -103.5t125 -288.5q0 -229 -276 -305q173 -38 252.5 -125.5t79.5 -240.5q0 -198 -123 -305t-355 -107h-788zM569 295h119q213 0 213 174q0 86 -54.5 131t-158.5 45h-119v-350zM569 893h119q182 0 182 143q0 144 -182 144h-119 v-287z" />
<glyph unicode="C" horiz-adv-x="1624" d="M51 737q0 347 264 580q213 186 523 186q249 0 403 -160v132h344v-568h-373q-46 118 -137.5 180t-220.5 62q-175 0 -286 -115.5t-111 -296.5q0 -179 110 -294t273 -115q237 0 356 213h410q-80 -266 -285 -418t-483 -152q-309 0 -523 187q-129 114 -196.5 261.5 t-67.5 317.5z" />
<glyph unicode="D" horiz-adv-x="1615" d="M41 0v295h149v885h-149v295h700q305 0 443 -72q196 -104 288.5 -266t92.5 -400q0 -236 -93 -398.5t-288 -266.5q-138 -72 -443 -72h-700zM584 295h114q228 0 345.5 112t117.5 330q0 219 -117.5 331t-345.5 112h-114v-885z" />
<glyph unicode="E" horiz-adv-x="1464" d="M49 0v295h150v885h-150v295h1323v-535h-256l-90 240h-442v-240h290v-328h-290v-317h442l90 287h256v-582h-1323z" />
<glyph unicode="F" horiz-adv-x="1382" d="M49 0v295h150v885h-150v295h1299v-535h-256l-88 240h-420v-240h272v-328h-272v-317h194v-295h-729z" />
<glyph unicode="G" horiz-adv-x="1730" d="M51 737q0 355 264 586q98 86 225.5 133t264.5 47q234 0 366 -135l-4 107h344v-514h-372q-76 190 -299 190q-167 0 -275 -116.5t-108 -297.5q0 -186 105.5 -298.5t277.5 -112.5q106 0 187.5 55t127.5 158h-186v274h747v-274h-133v-539h-321v193q-179 -222 -465 -222 q-136 0 -263 48t-225 137q-124 112 -191 263t-67 318z" />
<glyph unicode="H" horiz-adv-x="1597" d="M49 0v295h150v885h-150v295h688v-295h-155v-269h434v269h-156v295h688v-295h-149v-885h149v-295h-688v295h156v323h-434v-323h155v-295h-688z" />
<glyph unicode="I" horiz-adv-x="786" d="M49 0v295h150v885h-150v295h688v-295h-155v-885h155v-295h-688z" />
<glyph unicode="J" horiz-adv-x="782" d="M27 4h34q84 0 113 29q22 22 28.5 63t6.5 121v96v867h-150v295h682v-295h-149v-885q0 -98 -1.5 -146.5t-8.5 -116.5t-24 -116t-46 -90q-60 -89 -161 -130.5t-251 -41.5q-46 0 -73 2v348z" />
<glyph unicode="K" horiz-adv-x="1503" d="M49 0v295h150v885h-150v295h672v-295h-139v-400l348 400h-92v295h624v-295h-104l-391 -420l419 -465h142v-295h-690v295h100l-356 405v-405h139v-295h-672z" />
<glyph unicode="L" horiz-adv-x="1327" d="M49 0v295h150v885h-150v295h682v-295h-147v-885h377l88 287h249v-582h-1249z" />
<glyph unicode="M" horiz-adv-x="1931" d="M51 0v295h148v885h-148v295h690l230 -607l219 607h692v-295h-149v-885h149v-295h-678v295h156v817l-303 -801h-183l-303 801v-817h158v-295h-678z" />
<glyph unicode="N" horiz-adv-x="1593" d="M49 0v295h150v885h-150v295h524l492 -813l-12 518h-158v295h678v-295h-148v-1180h-319l-543 889l8 -594h156v-295h-678z" />
<glyph unicode="O" horiz-adv-x="1677" d="M51 737q0 349 264 580q213 186 523 186q311 0 524 -186q129 -114 196.5 -262t67.5 -318t-67.5 -317.5t-196.5 -261.5q-214 -187 -524 -187q-309 0 -523 187q-129 114 -196.5 261.5t-67.5 317.5zM457 737q0 -179 110 -294t273 -115q164 0 273.5 114.5t109.5 294.5 q0 181 -110 296.5t-273 115.5q-162 0 -272.5 -116.5t-110.5 -295.5z" />
<glyph unicode="P" horiz-adv-x="1345" d="M49 0v295h150v885h-150v295h756q232 0 366 -126t134 -341t-134 -341t-366 -126h-223v-246h155v-295h-688zM582 817h102q236 0 236 182q0 181 -236 181h-102v-363z" />
<glyph unicode="Q" horiz-adv-x="1677" d="M51 737q0 349 264 580q213 186 523 186q311 0 524 -186q264 -231 264 -598q0 -365 -276 -561h231v-297h-401l-86 159q-104 -49 -256 -49q-309 0 -523 187q-129 114 -196.5 261.5t-67.5 317.5zM457 737q0 -179 110 -294t273 -115q42 0 67 14l-98 139l217 133l94 -157 q115 93 115 270q0 185 -109 303.5t-274 118.5q-172 0 -283.5 -115.5t-111.5 -296.5z" />
<glyph unicode="R" horiz-adv-x="1441" d="M51 0v295h148v885h-148v295h910q173 0 280 -107t107 -276q0 -123 -59 -202t-187 -126q104 -32 144 -76t40 -137v-256h133v-295h-516v344q0 56 -1.5 89.5t-8 70t-19.5 56t-35.5 37t-56 24t-80.5 6.5h-118v-332h118v-295h-651zM584 868h151q104 0 154.5 38.5t50.5 117.5 t-50.5 117.5t-154.5 38.5h-151v-312z" />
<glyph unicode="S" horiz-adv-x="1398" d="M80 1038q0 199 143 333t357 134q226 0 348 -162l-6 132h323v-465h-323q-120 211 -271 211q-68 0 -112.5 -36.5t-44.5 -90.5q0 -57 49 -90t155 -54l136 -24q253 -47 377 -161t124 -304q0 -221 -138 -355.5t-370 -134.5q-259 0 -424 183l9 -154h-322v500h342 q82 -114 157.5 -166.5t168.5 -52.5q74 0 119 36t45 93q0 112 -177 139l-157 26q-508 82 -508 463z" />
<glyph unicode="T" horiz-adv-x="1308" d="M33 952v523h1243v-523h-236l-75 232h-119v-889h149v-295h-682v295h150v889h-119l-76 -232h-235z" />
<glyph unicode="U" horiz-adv-x="1560" d="M14 1180v295h688v-295h-155v-617q0 -116 60 -175.5t173 -59.5t172.5 59.5t59.5 175.5v617h-154v295h686v-295h-147v-670q0 -249 -165.5 -394t-451.5 -145q-285 0 -450.5 145t-165.5 394v670h-150z" />
<glyph unicode="V" horiz-adv-x="1419" d="M16 1180v295h617v-295h-135l211 -721l213 721h-136v295h615v-295h-115l-393 -1180h-367l-395 1180h-115z" />
<glyph unicode="W" horiz-adv-x="2004" d="M16 1180v295h590v-295h-127l197 -654l196 654h-127v295h515v-295h-127l200 -654l207 654h-141v295h590v-295h-105l-395 -1180h-293l-188 629l-197 -629h-309l-385 1180h-101z" />
<glyph unicode="X" horiz-adv-x="1548" d="M12 0v295h133l347 467l-338 418h-115v295h645v-295h-117l207 -271l207 271h-119v295h645v-295h-125l-319 -420l342 -465h131v-295h-662v295h115l-219 336l-215 -336h117v-295h-660z" />
<glyph unicode="Y" horiz-adv-x="1503" d="M16 1180v295h648v-295h-119l213 -349l211 349h-117v295h633v-295h-113l-432 -635v-250h156v-295h-688v295h149v250l-426 635h-115z" />
<glyph unicode="Z" horiz-adv-x="1390" d="M70 0v295l768 895h-381l-78 -225h-285v510h1215v-273l-797 -917h465l72 293h270v-578h-1249z" />
<glyph unicode="[" horiz-adv-x="894" d="M219 -176v1651h600v-205h-248v-1241h248v-205h-600z" />
<glyph unicode="\" horiz-adv-x="788" d="M4 1503h207l524 -1693h-205z" />
<glyph unicode="]" horiz-adv-x="894" d="M78 29h248v1241h-248v205h598v-1651h-598v205z" />
<glyph unicode="^" horiz-adv-x="2048" d="M414 899l465 563h288l465 -563h-264l-344 342l-346 -342h-264z" />
<glyph unicode="_" horiz-adv-x="1024" d="M0 -244h1024v-239h-1024v239z" />
<glyph unicode="`" horiz-adv-x="1024" d="M207 1477h287l192 -371h-154z" />
<glyph unicode="a" horiz-adv-x="1304" d="M43 485q0 229 128.5 369.5t330.5 140.5q195 0 289 -147v125h464v-295h-118v-383h118v-295h-464v125q-99 -150 -283 -150q-195 0 -330 146.5t-135 363.5zM416 479q0 -82 53.5 -134t136.5 -52q81 0 137 52.5t56 133.5q0 79 -56.5 133t-136.5 54q-83 0 -136.5 -52.5 t-53.5 -134.5z" />
<glyph unicode="b" horiz-adv-x="1298" d="M45 0v295h117v885h-117v295h483v-609q117 129 281 129q191 0 318.5 -141t127.5 -369q0 -217 -134.5 -363.5t-327.5 -146.5q-178 0 -283 146v-121h-465zM502 479q0 -81 55 -133.5t135 -52.5q84 0 138.5 52.5t54.5 133.5t-54.5 134t-138.5 53q-80 0 -135 -53t-55 -134z" />
<glyph unicode="c" horiz-adv-x="1165" d="M43 489q0 222 137.5 363t347.5 141q90 0 155.5 -29.5t96.5 -82.5v92h291v-412h-319q-44 107 -164 107q-76 0 -124 -49.5t-48 -129.5q0 -82 44.5 -129t121.5 -47q125 0 170 107h344q-32 -212 -171.5 -328.5t-359.5 -116.5q-232 0 -377 143.5t-145 370.5z" />
<glyph unicode="d" horiz-adv-x="1294" d="M43 485q0 227 129 368.5t320 141.5q169 0 280 -129v314h-121v293h486v-1178h118v-295h-467v121q-105 -146 -280 -146q-194 0 -329.5 147t-135.5 363zM416 479q0 -82 53.5 -134t136.5 -52q81 0 137 52.5t56 133.5q0 79 -56.5 133t-136.5 54q-83 0 -136.5 -52.5 t-53.5 -134.5z" />
<glyph unicode="e" horiz-adv-x="1132" d="M43 487q0 221 149.5 364.5t387.5 143.5q221 0 363 -147.5t142 -386.5q0 -7 -1 -21.5t-1 -21.5h-661q6 -73 48.5 -116.5t104.5 -43.5q96 0 154 82l322 -100q-171 -265 -469 -265q-243 0 -391 139.5t-148 372.5zM422 578h317q-12 149 -157 149q-72 0 -113 -38t-47 -111z " />
<glyph unicode="f" horiz-adv-x="735" d="M59 0v295h121v383h-121v295h121v135q0 124 12 192.5t50 106.5q39 39 105.5 53.5t178.5 14.5q64 0 164 -7v-286q-6 0 -18.5 1t-18.5 1q-68 0 -87 -29.5t-19 -118.5v-63h121v-295h-121v-383h121v-295h-609z" />
<glyph unicode="g" horiz-adv-x="1296" d="M43 485q0 227 127 368.5t322 141.5q165 0 280 -127v105h483v-295h-118v-520q0 -168 -28.5 -272.5t-107.5 -178.5q-65 -62 -177.5 -97.5t-256.5 -35.5q-285 0 -438 80v297q193 -103 383 -103q264 0 264 211q0 20 -4 56q-113 -101 -278 -101q-208 0 -329.5 127.5 t-121.5 343.5zM416 479q0 -82 53.5 -134t136.5 -52q81 0 137 52.5t56 133.5q0 79 -56.5 133t-136.5 54q-83 0 -136.5 -52.5t-53.5 -134.5z" />
<glyph unicode="h" horiz-adv-x="1261" d="M45 0v295h117v885h-117v295h483v-627q150 147 297 147q169 0 242 -102q27 -36 34 -83.5t7 -127.5v-25v-362h117v-295h-484v528q0 89 -19 126.5t-75 37.5q-69 0 -94 -48.5t-25 -158.5v-190h105v-295h-588z" />
<glyph unicode="i" horiz-adv-x="694" d="M49 0v295h119v383h-119v295h483v-678h105v-295h-588zM90 1106v315h442v-315h-442z" />
<glyph unicode="j" horiz-adv-x="653" d="M31 -86h22q32 0 52 6.5t32 16t17.5 34t6.5 47t1 68.5v592h-117v295h483v-959q0 -119 -10 -188t-45 -121q-41 -61 -131.5 -97t-212.5 -36q-51 0 -98 6v336zM86 1106v315h442v-315h-442z" />
<glyph unicode="k" horiz-adv-x="1255" d="M43 0v295h119v885h-119v295h483v-943l246 181h-133v260h541v-295h-82l-195 -148l238 -235h71v-295h-573v246h133l-246 211v-457h-483z" />
<glyph unicode="l" horiz-adv-x="681" d="M43 0v295h119v885h-119v295h483v-1180h105v-295h-588z" />
<glyph unicode="m" horiz-adv-x="1761" d="M72 0v295h96v383h-96v295h450v-125q68 79 134.5 113t156.5 34q84 0 143.5 -33t112.5 -108q63 72 124 106.5t132 34.5q169 0 242 -102q25 -33 32 -76.5t7 -114.5v-45v-362h96v-295h-451v528q0 89 -18 127.5t-68 38.5q-61 0 -82.5 -49t-21.5 -160v-190h90v-295h-438v528 q0 89 -18 127.5t-68 38.5q-61 0 -83 -49t-22 -160v-190h90v-295h-540z" />
<glyph unicode="n" horiz-adv-x="1265" d="M49 0v295h119v383h-119v295h483v-125q150 147 299 147q167 0 240 -102q27 -36 34 -83.5t7 -127.5v-25v-362h117v-295h-481v528q0 88 -20.5 126t-76.5 38q-69 0 -94 -48.5t-25 -158.5v-190h105v-295h-588z" />
<glyph unicode="o" horiz-adv-x="1165" d="M43 485q0 141 69 257.5t193 184.5t277 68q233 0 387.5 -147.5t154.5 -362.5q0 -105 -41.5 -199.5t-112.5 -162.5t-172 -108t-216 -40q-230 0 -384.5 147.5t-154.5 362.5zM414 485q0 -73 48.5 -121.5t119.5 -48.5q72 0 121 48t49 122t-49.5 123t-120.5 49t-119.5 -49 t-48.5 -123z" />
<glyph unicode="p" horiz-adv-x="1304" d="M49 -133h119v811h-119v295h483v-105q110 127 295 127q88 0 167.5 -37t138.5 -102.5t94 -162t35 -208.5q0 -215 -132.5 -362.5t-318.5 -147.5q-89 0 -155.5 28.5t-123.5 90.5v-227h127v-293h-610v293zM506 479q0 -81 55.5 -133.5t136.5 -52.5q83 0 137 52t54 134 t-54 134.5t-137 52.5q-80 0 -136 -54t-56 -133z" />
<glyph unicode="q" horiz-adv-x="1304" d="M43 485q0 225 126 367.5t308 142.5q185 0 295 -127v105h483v-295h-118v-811h118v-293h-612v293h129v227q-57 -63 -123.5 -91t-154.5 -28q-186 0 -318.5 147.5t-132.5 362.5zM416 479q0 -82 53.5 -134t136.5 -52q81 0 137 52.5t56 133.5q0 79 -56.5 133t-136.5 54 q-83 0 -136.5 -52.5t-53.5 -134.5z" />
<glyph unicode="r" horiz-adv-x="980" d="M49 0v295h119v383h-119v295h483v-166l15 4q23 86 74.5 132t123.5 46q87 0 141 -56.5t54 -148.5q0 -86 -55.5 -142t-141.5 -56q-131 0 -192 155l-19 -6v-440h121v-295h-604z" />
<glyph unicode="s" horiz-adv-x="1075" d="M88 674q0 141 100 232t258 91q132 0 252 -71v47h252v-295h-233q-38 131 -162 131q-44 0 -69 -19.5t-25 -50.5q0 -32 26.5 -52t87.5 -40l109 -35q90 -29 141.5 -52.5t95 -59.5t61 -85.5t17.5 -121.5q0 -145 -95.5 -231.5t-264.5 -86.5q-115 0 -279 70v-45h-251v295h239 q82 -129 199 -129q41 0 62.5 20t21.5 56q0 27 -20 43t-66 30l-156 50q-160 50 -230.5 117t-70.5 192z" />
<glyph unicode="t" horiz-adv-x="696" d="M23 678v295h127v307h358v-307h123v-295h-123v-262q0 -73 23.5 -97t97.5 -24h12v-295h-143q-86 0 -129.5 2.5t-94 14t-72.5 35.5t-37 67.5t-15 109.5v449h-127z" />
<glyph unicode="u" horiz-adv-x="1241" d="M27 678v295h483v-529q0 -89 19 -127t75 -38q69 0 94 48t25 158v193h-102v295h469v-295v-383h118v-295h-485v125q-153 -150 -297 -150q-164 0 -240 105q-26 36 -33.5 83t-7.5 126v24v365h-118z" />
<glyph unicode="v" horiz-adv-x="1222" d="M8 678v295h551v-295h-82l141 -381l136 381h-82v295h542v-295h-118l-271 -678h-428l-270 678h-119z" />
<glyph unicode="w" horiz-adv-x="1654" d="M6 678v295h522v-295h-82l93 -318l168 613h239l174 -613l94 318h-81v295h514v-295h-117l-209 -678h-371l-123 444l-122 -444h-373l-207 678h-119z" />
<glyph unicode="x" horiz-adv-x="1214" d="M39 0v295h127l190 211l-135 172h-170v295h473v-185l84 -116l86 116v185h473v-295h-170l-135 -172l191 -211h127v-295h-480v240l-92 116l-90 -116v-240h-479z" />
<glyph unicode="y" horiz-adv-x="1236" d="M8 678v295h561v-295h-88l146 -336l141 336h-80v295h524v-295h-118l-377 -811h119v-295h-568v295h133l62 133l-328 678h-127z" />
<glyph unicode="z" horiz-adv-x="1085" d="M88 0v313l512 404h-248l-43 -117h-221v373h909v-307l-522 -412h262l31 127h229v-381h-909z" />
<glyph unicode="{" horiz-adv-x="1024" d="M152 410v241q6 0 18 -1t18 -1q119 0 168.5 56t49.5 188v254q0 120 19.5 184t86.5 99q93 49 301 49q12 0 38.5 -1t41.5 -1v-242q-7 0 -21 1t-20 1q-102 0 -134 -37.5t-32 -144.5v-240q0 -135 -43.5 -197t-167.5 -88q125 -26 168 -86.5t43 -195.5v-242q0 -106 32 -143 t132 -37q7 0 21.5 1t21.5 1v-242q-15 0 -42 -1t-40 -1q-206 0 -299 49q-67 35 -86.5 98t-19.5 183v256q0 132 -49 187t-169 55q-5 0 -17.5 -1t-18.5 -1z" />
<glyph unicode="|" horiz-adv-x="1024" d="M393 -483v2048h240v-2048h-240z" />
<glyph unicode="}" horiz-adv-x="1024" d="M133 -172q9 0 23 -1t20 -1q101 0 132.5 37t31.5 143v242q0 134 43 195.5t168 86.5q-125 25 -168 87.5t-43 197.5v240q0 105 -31 143.5t-129 38.5q-7 0 -23 -1t-24 -1v242q15 0 41.5 1t38.5 1q206 0 301 -49q67 -35 87 -99t20 -184v-254q0 -133 49 -188.5t168 -55.5 q6 0 18 1t18 1v-241q-6 0 -18 1t-18 1q-119 0 -168 -55.5t-49 -186.5v-256q0 -120 -20 -184t-87 -99q-86 -47 -291 -47q-14 0 -44 1t-46 1v242z" />
<glyph unicode="~" horiz-adv-x="1705" d="M178 401v254q222 144 387 144q119 0 295 -58q12 -4 56.5 -19.5t63 -21t54 -15.5t65.5 -13.5t60 -3.5q163 0 371 151v-254q-199 -137 -377 -137q-90 0 -172 29q-5 2 -47 16.5t-50.5 17.5t-45 15t-49 15t-43.5 12t-48 11.5t-43.5 7t-48.5 6t-45 1.5q-88 0 -179.5 -39 t-203.5 -119z" />
<glyph unicode="&#xa1;" horiz-adv-x="735" d="M160 1298q0 88 59.5 146.5t147.5 58.5q89 0 147.5 -58.5t58.5 -146.5t-58.5 -146t-147.5 -58q-88 0 -147.5 58.5t-59.5 145.5zM172 4l33 950h323l33 -950h-389z" />
<glyph unicode="&#xa2;" d="M59 518q0 216 131 355t322 139q55 0 109 -13l69 246h137l-86 -305q39 -22 82 -74v127h230v-411h-297q-28 97 -101 118l-112 -399q27 -6 51 -6q72 0 120.5 39.5t57.5 105.5h297q-19 -194 -153.5 -317t-321.5 -123q-31 0 -109 8l-73 -260h-138l82 293q-143 60 -220 183 t-77 294zM362 494q0 -133 95 -181l116 410q-4 0 -12 1t-12 1q-83 0 -135 -63t-52 -168z" />
<glyph unicode="&#xa3;" d="M66 -27v349q96 28 139 89t43 167v75h-178v181h149q-37 164 -37 241q0 170 120.5 279.5t315.5 109.5q197 0 320 -111.5t123 -283.5q0 -31 -2 -51h-322q0 81 -24 118.5t-80 37.5q-52 0 -82.5 -31t-30.5 -84q0 -32 43 -225h256v-181h-233q4 -37 4 -96q0 -130 -55 -219 q86 -62 143 -62q116 0 119 138h323v-37q0 -196 -94 -301t-270 -105q-210 0 -357 150q-113 -127 -333 -148z" />
<glyph unicode="&#xa4;" horiz-adv-x="1241" d="M61 444l201 203q-72 107 -72 238q0 133 72 237l-201 205l117 117l203 -201q109 74 240 74q137 0 243 -74l201 201l119 -117l-201 -205q70 -107 70 -237q0 -131 -70 -238l201 -203l-119 -118l-201 202q-103 -73 -241 -73q-136 0 -242 73l-203 -202zM362 885 q0 -107 76 -183.5t185 -76.5q107 0 183.5 76.5t76.5 183.5q0 106 -76.5 183t-183.5 77t-184 -77t-77 -183z" />
<glyph unicode="&#xa5;" horiz-adv-x="1292" d="M0 1163v264h580v-264h-107l182 -379l179 379h-111v264h569v-264h-102l-117 -194h156v-168h-252l-94 -162h346v-168h-410v-203h135v-268h-614v268h129v203h-410v168h344l-92 162h-252v168h156l-113 194h-102z" />
<glyph unicode="&#xa6;" horiz-adv-x="1024" d="M393 -350v758h240v-758h-240zM393 674v758h240v-758h-240z" />
<glyph unicode="&#xa7;" d="M66 788q0 110 75.5 187t192.5 80q-66 84 -66 170q0 108 90.5 179t239.5 71h379v-336h-238v110h-77q-62 0 -89.5 -13t-27.5 -44q0 -17 7 -33t28 -38.5t35.5 -37t55 -50.5t62.5 -56l158 -148q92 -86 136 -165.5t44 -171.5q0 -126 -68.5 -207.5t-173.5 -81.5q78 -93 78 -193 q0 -237 -366 -237h-346v342h237v-111h78q53 0 76.5 12t23.5 43t-39.5 75.5t-136.5 133.5l-155 146q-109 101 -161 190.5t-52 183.5zM330 786q0 -45 90 -135l182 -180q77 -74 127 -74q38 0 62 23t24 57q0 49 -88 137l-182 179q-76 73 -129 73q-38 0 -62 -23t-24 -57z" />
<glyph unicode="&#xa8;" horiz-adv-x="1024" d="M205 1157v270h250v-270h-250zM567 1157v270h252v-270h-252z" />
<glyph unicode="&#xa9;" horiz-adv-x="1705" d="M106 737q0 148 57.5 285t164.5 246q214 217 524 217q313 0 532 -219q215 -215 215 -529t-213 -524q-110 -108 -248 -165.5t-286 -57.5t-283.5 57t-242.5 164t-163.5 242t-56.5 284zM242 737q0 -120 47 -231t135 -199q180 -180 430 -180q121 0 233.5 46.5t202.5 135.5 q174 171 174 428q0 256 -176 432q-181 181 -434 181q-254 0 -430 -179q-88 -90 -135 -201.5t-47 -232.5zM446 731q0 208 111.5 329.5t298.5 121.5q158 0 257.5 -80t107.5 -211h-213q-6 67 -47 104t-109 37q-81 0 -128.5 -76.5t-47.5 -216.5t47.5 -212t138.5 -72q66 0 106 40 t46 115h215q-6 -143 -107.5 -230t-263.5 -87q-190 0 -301 117.5t-111 320.5z" />
<glyph unicode="&#xaa;" horiz-adv-x="978" d="M33 1135q0 161 96 258.5t248 97.5q143 0 217 -102v86h348v-205h-90v-269h90v-206h-348v88q-71 -105 -213 -105q-146 0 -247 102t-101 255zM311 1130q0 -57 41 -94t103 -37q61 0 103 37.5t42 93.5q0 55 -42.5 92.5t-102.5 37.5q-62 0 -103 -36.5t-41 -93.5z" />
<glyph unicode="&#xab;" horiz-adv-x="1204" d="M100 485l277 332h285l-279 -332l279 -331h-285zM559 485l279 332h282l-276 -332l276 -331h-282z" />
<glyph unicode="&#xac;" horiz-adv-x="1705" d="M254 639v227h1198v-501h-229v274h-969z" />
<glyph unicode="&#xad;" horiz-adv-x="634" d="M45 346v328h547v-328h-547z" />
<glyph unicode="&#xae;" horiz-adv-x="1705" d="M106 737q0 150 59 289.5t169 247.5q214 211 518 211q156 0 294 -57.5t245 -167.5q102 -103 155 -238t53 -285q0 -155 -57 -291t-164 -239q-110 -106 -245.5 -161.5t-280.5 -55.5q-151 0 -287 58.5t-243 168.5q-105 108 -160.5 241t-55.5 279zM244 737q0 -247 174 -424 q88 -91 199.5 -138.5t234.5 -47.5q121 0 232 45t200 131q180 174 180 434q0 253 -172 428q-182 185 -438 185q-251 0 -426 -172q-90 -90 -137 -203.5t-47 -237.5zM537 344v819h329q176 0 265.5 -60.5t89.5 -176.5q0 -80 -45.5 -138t-128.5 -83l182 -361h-248l-154 326h-65 v-326h-225zM762 803h80q147 0 147 106q0 59 -38.5 86t-121.5 27h-67v-219z" />
<glyph unicode="&#xaf;" horiz-adv-x="1024" d="M205 1206v170h614v-170h-614z" />
<glyph unicode="&#xb0;" horiz-adv-x="673" d="M27 1155q0 131 90.5 221t220.5 90q128 0 219.5 -90.5t91.5 -220.5q0 -128 -91.5 -219.5t-221.5 -91.5q-129 0 -219 90.5t-90 220.5zM172 1157q0 -69 48 -117.5t118 -48.5q68 0 116 49t48 117t-47.5 116t-116.5 48q-68 0 -117 -48t-49 -116z" />
<glyph unicode="&#xb1;" horiz-adv-x="1705" d="M254 -18v231h1198v-231h-1198zM254 690v232h481v319h238v-319h479v-232h-479v-319h-238v319h-481z" />
<glyph unicode="&#xb2;" horiz-adv-x="751" d="M49 575v181l240 221q90 83 130 132t40 89q0 32 -22.5 51t-59.5 19q-45 0 -70.5 -24.5t-25.5 -69.5v-15h-232v15q0 132 86.5 206t239.5 74q145 0 229 -68t84 -180q0 -105 -89.5 -206t-287.5 -240h199v53h192v-238h-653z" />
<glyph unicode="&#xb3;" horiz-adv-x="751" d="M41 838v26h223v-8q0 -111 105 -111q43 0 71.5 27.5t28.5 71.5q0 53 -41.5 74.5t-130.5 21.5h-12v158h12q83 0 121.5 19t38.5 71q0 37 -26 58.5t-69 21.5q-47 0 -74.5 -25t-27.5 -69v-13h-207v6q0 138 84 212.5t238 74.5q142 0 226.5 -67t84.5 -173q0 -69 -45 -116.5 t-131 -67.5q92 -9 144.5 -64.5t52.5 -144.5q0 -117 -91 -189.5t-243 -72.5q-155 0 -243.5 74.5t-88.5 204.5z" />
<glyph unicode="&#xb4;" horiz-adv-x="1024" d="M338 1106l192 371h287l-325 -371h-154z" />
<glyph unicode="&#xb5;" horiz-adv-x="1314" d="M-45 -428l238 1518h358l-80 -529q-12 -82 -12 -143q0 -170 143 -170q89 0 139 70t74 219l88 553h357l-175 -1090h-321l18 125q-40 -74 -89.5 -107.5t-119.5 -33.5q-123 0 -184 120l-82 -532h-352z" />
<glyph unicode="&#xb6;" horiz-adv-x="1024" d="M29 1130q0 156 105 252.5t284 96.5h579v-123h-106v-1356h-174v1356h-152v-1356h-174v784q-166 6 -264 101.5t-98 244.5z" />
<glyph unicode="&#xb7;" horiz-adv-x="569" d="M78 731q0 88 59.5 147.5t147.5 59.5q89 0 148 -59.5t59 -147.5t-59 -145.5t-148 -57.5q-88 0 -147.5 58t-59.5 145z" />
<glyph unicode="&#xb8;" horiz-adv-x="1024" d="M272 -301q162 -45 271 -45q86 0 86 72q0 63 -119 63q-35 0 -55 -2v213h114v-84h19q112 0 170.5 -49.5t58.5 -142.5q0 -99 -66 -154t-188 -55q-117 0 -291 47v137z" />
<glyph unicode="&#xb9;" horiz-adv-x="751" d="M160 575v162h100v541h-100v160h332v-701h102v-162h-434z" />
<glyph unicode="&#xba;" horiz-adv-x="874" d="M33 1135q0 150 115 253t288 103q176 0 292 -103t116 -253t-117 -253.5t-291 -103.5q-172 0 -287.5 103.5t-115.5 253.5zM311 1135q0 -52 36 -85.5t89 -33.5q54 0 90.5 33.5t36.5 85.5t-36.5 86t-90.5 34q-53 0 -89 -34t-36 -86z" />
<glyph unicode="&#xbb;" horiz-adv-x="1204" d="M84 154l276 331l-276 332h283l278 -332l-278 -331h-283zM543 154l278 331l-278 332h284l277 -332l-277 -331h-284z" />
<glyph unicode="&#xbc;" horiz-adv-x="1775" d="M152 633v149h94v506h-94v150h317v-656h96v-149h-413zM375 -29l850 1493h174l-850 -1493h-174zM1085 213v109l279 483h289v-457h82v-135h-82v-78h82v-135h-420v135h129v78h-359zM1268 348h176v168q0 56 10 166z" />
<glyph unicode="&#xbd;" horiz-adv-x="1775" d="M152 633v149h94v506h-94v150h317v-656h96v-149h-413zM375 -29l850 1493h174l-850 -1493h-174zM1106 0v168l227 207q86 76 125 122.5t39 82.5q0 30 -22 48.5t-56 18.5q-43 0 -67.5 -23.5t-24.5 -66.5v-12h-221v14q0 123 83 191.5t228 68.5q137 0 218 -63t81 -168 q0 -96 -85.5 -191t-272.5 -225h188v49h183v-221h-623z" />
<glyph unicode="&#xbe;" horiz-adv-x="1777" d="M39 877q0 4 1 13t1 13h211v-8q0 -51 25.5 -77.5t72.5 -26.5q42 0 70.5 26t28.5 68q0 48 -39.5 68t-124.5 20h-15v147h15q78 0 114.5 17.5t36.5 66.5q0 34 -25 55t-65 21q-46 0 -72 -23.5t-26 -66.5v-10h-197v4q0 129 79.5 198.5t227.5 69.5q136 0 215.5 -62t79.5 -161 q0 -65 -42.5 -109t-123.5 -63q88 -7 137.5 -59.5t49.5 -135.5q0 -109 -86.5 -177.5t-233.5 -68.5t-231 69.5t-84 191.5zM375 -29l850 1493h174l-850 -1493h-174zM1085 213v109l279 483h289v-457h82v-135h-82v-78h82v-135h-420v135h129v78h-359zM1268 348h176v168 q0 56 10 166z" />
<glyph unicode="&#xbf;" horiz-adv-x="1232" d="M129 430q0 183 97 297.5t263 126.5v100h340v-358q-6 0 -24 1t-31 1q-140 0 -206 -41.5t-66 -134.5q0 -65 33 -99t96 -34q65 0 103.5 40.5t39.5 110.5h356q5 -30 5 -43q0 -83 -47.5 -165.5t-135.5 -149.5q-141 -107 -334 -107q-219 0 -354 126.5t-135 328.5zM455 1298 q0 88 59 146.5t148 58.5q88 0 147 -58.5t59 -146.5t-59 -146t-147 -58q-89 0 -148 58t-59 146z" />
<glyph unicode="&#xc0;" horiz-adv-x="1554" d="M4 0v295h125l274 885h-145v295h1038v-295h-143l272 -885h127v-295h-645v295h131l-59 199h-404l-55 -199h129v-295h-645zM473 1956h287l192 -371h-153zM635 756h285l-144 467z" />
<glyph unicode="&#xc1;" horiz-adv-x="1554" d="M4 0v295h125l274 885h-145v295h1038v-295h-143l272 -885h127v-295h-645v295h131l-59 199h-404l-55 -199h129v-295h-645zM604 1585l193 371h286l-325 -371h-154zM635 756h285l-144 467z" />
<glyph unicode="&#xc2;" horiz-adv-x="1554" d="M4 0v295h125l274 885h-145v295h1038v-295h-143l272 -885h127v-295h-645v295h131l-59 199h-404l-55 -199h129v-295h-645zM457 1585l192 371h256l193 -371h-154l-166 199l-168 -199h-153zM635 756h285l-144 467z" />
<glyph unicode="&#xc3;" horiz-adv-x="1554" d="M4 0v295h125l274 885h-145v295h1038v-295h-143l272 -885h127v-295h-645v295h131l-59 199h-404l-55 -199h129v-295h-645zM446 1630q28 125 80.5 185.5t135.5 60.5q38 0 90 -14l94 -27q30 -10 57 -10q67 0 88 86h119q-30 -131 -82 -192.5t-137 -61.5q-35 0 -76 12l-92 27 q-47 12 -68 12q-64 0 -90 -78h-119zM635 756h285l-144 467z" />
<glyph unicode="&#xc4;" horiz-adv-x="1554" d="M4 0v295h125l274 885h-145v295h1038v-295h-143l272 -885h127v-295h-645v295h131l-59 199h-404l-55 -199h129v-295h-645zM471 1636v271h250v-271h-250zM635 756h285l-144 467zM834 1636v271h251v-271h-251z" />
<glyph unicode="&#xc5;" horiz-adv-x="1554" d="M4 0v295h125l274 885h-145v295h1038v-295h-143l272 -885h127v-295h-645v295h131l-59 199h-404l-55 -199h129v-295h-645zM575 1751q0 92 64 156.5t156 64.5t156.5 -64.5t64.5 -156.5t-64.5 -155.5t-156.5 -63.5t-156 63.5t-64 155.5zM635 756h285l-144 467zM717 1753 q0 -34 23 -57t57 -23q32 0 54.5 23.5t22.5 56.5q0 32 -22.5 55t-54.5 23t-56 -23t-24 -55z" />
<glyph unicode="&#xc6;" horiz-adv-x="2291" d="M0 0v295h106l492 885h-158v295h1758v-535h-256l-89 240h-436v-240h291v-328h-291v-317h436l89 287h256v-582h-1307v295h149v194h-436l-94 -194h141v-295h-651zM733 752h307v448h-92z" />
<glyph unicode="&#xc7;" horiz-adv-x="1624" d="M51 737q0 347 264 580q213 186 523 186q249 0 403 -160v132h344v-568h-373q-46 118 -137.5 180t-220.5 62q-175 0 -286 -115.5t-111 -296.5q0 -179 110 -294t273 -115q237 0 356 213h410q-80 -266 -285 -418t-483 -152q-309 0 -523 187q-129 114 -196.5 261.5 t-67.5 317.5zM592 -301q162 -45 270 -45q86 0 86 72q0 63 -119 63q-35 0 -55 -2v213h115v-84h18q112 0 171 -49.5t59 -142.5q0 -99 -66 -154t-188 -55q-117 0 -291 47v137z" />
<glyph unicode="&#xc8;" horiz-adv-x="1464" d="M49 0v295h150v885h-150v295h1323v-535h-256l-90 240h-442v-240h290v-328h-290v-317h442l90 287h256v-582h-1323zM453 1956h286l193 -371h-154z" />
<glyph unicode="&#xc9;" horiz-adv-x="1464" d="M49 0v295h150v885h-150v295h1323v-535h-256l-90 240h-442v-240h290v-328h-290v-317h442l90 287h256v-582h-1323zM584 1585l192 371h287l-326 -371h-153z" />
<glyph unicode="&#xca;" horiz-adv-x="1464" d="M49 0v295h150v885h-150v295h1323v-535h-256l-90 240h-442v-240h290v-328h-290v-317h442l90 287h256v-582h-1323zM436 1585l193 371h256l192 -371h-153l-166 199l-168 -199h-154z" />
<glyph unicode="&#xcb;" horiz-adv-x="1464" d="M49 0v295h150v885h-150v295h1323v-535h-256l-90 240h-442v-240h290v-328h-290v-317h442l90 287h256v-582h-1323zM451 1636v271h249v-271h-249zM813 1636v271h252v-271h-252z" />
<glyph unicode="&#xcc;" horiz-adv-x="786" d="M49 0v295h150v885h-150v295h688v-295h-155v-885h155v-295h-688zM88 1956h287l192 -371h-153z" />
<glyph unicode="&#xcd;" horiz-adv-x="786" d="M49 0v295h150v885h-150v295h688v-295h-155v-885h155v-295h-688zM219 1585l193 371h286l-325 -371h-154z" />
<glyph unicode="&#xce;" horiz-adv-x="786" d="M49 0v295h150v885h-150v295h688v-295h-155v-885h155v-295h-688zM72 1585l192 371h256l193 -371h-154l-166 199l-168 -199h-153z" />
<glyph unicode="&#xcf;" horiz-adv-x="786" d="M49 0v295h150v885h-150v295h688v-295h-155v-885h155v-295h-688zM86 1636v271h250v-271h-250zM449 1636v271h251v-271h-251z" />
<glyph unicode="&#xd0;" horiz-adv-x="1615" d="M0 627v276h190v277h-149v295h700q305 0 443 -72q196 -104 288.5 -266t92.5 -400q0 -236 -93 -398.5t-288 -266.5q-138 -72 -443 -72h-700v295h149v332h-190zM584 295h114q228 0 345.5 112t117.5 330q0 219 -117.5 331t-345.5 112h-114v-277h290v-276h-290v-332z" />
<glyph unicode="&#xd1;" horiz-adv-x="1593" d="M49 0v295h150v885h-150v295h524l492 -813l-12 518h-158v295h678v-295h-148v-1180h-319l-543 889l8 -594h156v-295h-678zM465 1630q28 125 80 185.5t135 60.5q38 0 90 -14l94 -27q30 -10 58 -10q67 0 88 86h118q-30 -131 -82 -192.5t-137 -61.5q-35 0 -75 12l-93 27 q-46 12 -67 12q-64 0 -90 -78h-119z" />
<glyph unicode="&#xd2;" horiz-adv-x="1677" d="M51 737q0 349 264 580q213 186 523 186q311 0 524 -186q129 -114 196.5 -262t67.5 -318t-67.5 -317.5t-196.5 -261.5q-214 -187 -524 -187q-309 0 -523 187q-129 114 -196.5 261.5t-67.5 317.5zM457 737q0 -179 110 -294t273 -115q164 0 273.5 114.5t109.5 294.5 q0 181 -110 296.5t-273 115.5q-162 0 -272.5 -116.5t-110.5 -295.5zM535 1956h286l193 -371h-154z" />
<glyph unicode="&#xd3;" horiz-adv-x="1677" d="M51 737q0 349 264 580q213 186 523 186q311 0 524 -186q129 -114 196.5 -262t67.5 -318t-67.5 -317.5t-196.5 -261.5q-214 -187 -524 -187q-309 0 -523 187q-129 114 -196.5 261.5t-67.5 317.5zM457 737q0 -179 110 -294t273 -115q164 0 273.5 114.5t109.5 294.5 q0 181 -110 296.5t-273 115.5q-162 0 -272.5 -116.5t-110.5 -295.5zM666 1585l192 371h287l-326 -371h-153z" />
<glyph unicode="&#xd4;" horiz-adv-x="1677" d="M51 737q0 349 264 580q213 186 523 186q311 0 524 -186q129 -114 196.5 -262t67.5 -318t-67.5 -317.5t-196.5 -261.5q-214 -187 -524 -187q-309 0 -523 187q-129 114 -196.5 261.5t-67.5 317.5zM457 737q0 -179 110 -294t273 -115q164 0 273.5 114.5t109.5 294.5 q0 181 -110 296.5t-273 115.5q-162 0 -272.5 -116.5t-110.5 -295.5zM518 1585l193 371h256l192 -371h-153l-166 199l-168 -199h-154z" />
<glyph unicode="&#xd5;" horiz-adv-x="1677" d="M51 737q0 349 264 580q213 186 523 186q311 0 524 -186q129 -114 196.5 -262t67.5 -318t-67.5 -317.5t-196.5 -261.5q-214 -187 -524 -187q-309 0 -523 187q-129 114 -196.5 261.5t-67.5 317.5zM457 737q0 -179 110 -294t273 -115q164 0 273.5 114.5t109.5 294.5 q0 181 -110 296.5t-273 115.5q-162 0 -272.5 -116.5t-110.5 -295.5zM508 1630q28 125 80 185.5t135 60.5q38 0 90 -14l94 -27q30 -10 58 -10q67 0 88 86h118q-30 -131 -82 -192.5t-137 -61.5q-34 0 -75 12l-93 27q-47 12 -67 12q-64 0 -90 -78h-119z" />
<glyph unicode="&#xd6;" horiz-adv-x="1677" d="M51 737q0 349 264 580q213 186 523 186q311 0 524 -186q129 -114 196.5 -262t67.5 -318t-67.5 -317.5t-196.5 -261.5q-214 -187 -524 -187q-309 0 -523 187q-129 114 -196.5 261.5t-67.5 317.5zM457 737q0 -179 110 -294t273 -115q164 0 273.5 114.5t109.5 294.5 q0 181 -110 296.5t-273 115.5q-162 0 -272.5 -116.5t-110.5 -295.5zM532 1636v271h250v-271h-250zM895 1636v271h252v-271h-252z" />
<glyph unicode="&#xd7;" horiz-adv-x="1705" d="M268 170l441 440l-441 443l162 161l440 -440l441 440l162 -161l-441 -443l441 -440l-162 -162l-441 441l-440 -441z" />
<glyph unicode="&#xd8;" horiz-adv-x="1677" d="M51 737q0 349 264 580q209 186 539 186q220 0 375 -94l129 158h258l-215 -279q225 -225 225 -551q0 -169 -67.5 -318t-196.5 -261q-211 -187 -524 -187q-211 0 -392 97l-129 -158h-260l219 280q-109 109 -167 250t-58 297zM449 737q0 -138 71 -245l490 622 q-70 43 -170 43q-165 0 -278 -119t-113 -301zM664 360q93 -41 176 -41q167 0 278 117t111 301q0 150 -72 252z" />
<glyph unicode="&#xd9;" horiz-adv-x="1560" d="M14 1180v295h688v-295h-155v-617q0 -116 60 -175.5t173 -59.5t172.5 59.5t59.5 175.5v617h-154v295h686v-295h-147v-670q0 -249 -165.5 -394t-451.5 -145q-285 0 -450.5 145t-165.5 394v670h-150zM475 1956h287l192 -371h-153z" />
<glyph unicode="&#xda;" horiz-adv-x="1560" d="M14 1180v295h688v-295h-155v-617q0 -116 60 -175.5t173 -59.5t172.5 59.5t59.5 175.5v617h-154v295h686v-295h-147v-670q0 -249 -165.5 -394t-451.5 -145q-285 0 -450.5 145t-165.5 394v670h-150zM606 1585l193 371h286l-325 -371h-154z" />
<glyph unicode="&#xdb;" horiz-adv-x="1560" d="M14 1180v295h688v-295h-155v-617q0 -116 60 -175.5t173 -59.5t172.5 59.5t59.5 175.5v617h-154v295h686v-295h-147v-670q0 -249 -165.5 -394t-451.5 -145q-285 0 -450.5 145t-165.5 394v670h-150zM459 1585l192 371h256l193 -371h-154l-166 199l-168 -199h-153z" />
<glyph unicode="&#xdc;" horiz-adv-x="1560" d="M14 1180v295h688v-295h-155v-617q0 -116 60 -175.5t173 -59.5t172.5 59.5t59.5 175.5v617h-154v295h686v-295h-147v-670q0 -249 -165.5 -394t-451.5 -145q-285 0 -450.5 145t-165.5 394v670h-150zM473 1636v271h250v-271h-250zM836 1636v271h251v-271h-251z" />
<glyph unicode="&#xdd;" horiz-adv-x="1503" d="M16 1180v295h648v-295h-119l213 -349l211 349h-117v295h633v-295h-113l-432 -635v-250h156v-295h-688v295h149v250l-426 635h-115zM578 1585l192 371h287l-326 -371h-153z" />
<glyph unicode="&#xde;" horiz-adv-x="1345" d="M49 0v295h150v885h-150v295h682v-246h-149v-58h223q234 0 367 -112.5t133 -302.5q0 -188 -134 -301t-366 -113h-223v-72h155v-270h-688zM582 588h102q236 0 236 162q0 159 -236 159h-102v-321z" />
<glyph unicode="&#xdf;" horiz-adv-x="1282" d="M39 0v295h111v737q0 228 126 344.5t373 116.5q197 0 314.5 -99t117.5 -261q0 -179 -170 -297q155 -38 235.5 -147t80.5 -281q0 -204 -101.5 -318.5t-279.5 -114.5q-96 0 -199 41l49 293q5 0 15.5 -1t15.5 -1q66 0 97.5 36t31.5 112q0 100 -53.5 149.5t-169.5 57.5v292 q119 12 119 125q0 51 -32 81t-87 30q-33 0 -55.5 -10t-35 -25.5t-19 -48t-8 -62.5t-1.5 -83v-961h-475z" />
<glyph unicode="&#xe0;" horiz-adv-x="1304" d="M43 485q0 229 128.5 369.5t330.5 140.5q195 0 289 -147v125h464v-295h-118v-383h118v-295h-464v125q-99 -150 -283 -150q-195 0 -330 146.5t-135 363.5zM412 1477h286l193 -371h-154zM416 479q0 -82 53.5 -134t136.5 -52q81 0 137 52.5t56 133.5q0 79 -56.5 133 t-136.5 54q-83 0 -136.5 -52.5t-53.5 -134.5z" />
<glyph unicode="&#xe1;" horiz-adv-x="1304" d="M43 485q0 229 128.5 369.5t330.5 140.5q195 0 289 -147v125h464v-295h-118v-383h118v-295h-464v125q-99 -150 -283 -150q-195 0 -330 146.5t-135 363.5zM416 479q0 -82 53.5 -134t136.5 -52q81 0 137 52.5t56 133.5q0 79 -56.5 133t-136.5 54q-83 0 -136.5 -52.5 t-53.5 -134.5zM543 1106l192 371h287l-326 -371h-153z" />
<glyph unicode="&#xe2;" horiz-adv-x="1304" d="M43 485q0 229 128.5 369.5t330.5 140.5q195 0 289 -147v125h464v-295h-118v-383h118v-295h-464v125q-99 -150 -283 -150q-195 0 -330 146.5t-135 363.5zM395 1106l193 371h256l192 -371h-153l-166 199l-168 -199h-154zM416 479q0 -82 53.5 -134t136.5 -52q81 0 137 52.5 t56 133.5q0 79 -56.5 133t-136.5 54q-83 0 -136.5 -52.5t-53.5 -134.5z" />
<glyph unicode="&#xe3;" horiz-adv-x="1304" d="M43 485q0 229 128.5 369.5t330.5 140.5q195 0 289 -147v125h464v-295h-118v-383h118v-295h-464v125q-99 -150 -283 -150q-195 0 -330 146.5t-135 363.5zM385 1151q28 125 80 185.5t135 60.5q34 0 90 -15l94 -26q30 -10 58 -10q67 0 88 86h119q-30 -131 -82.5 -192.5 t-137.5 -61.5q-35 0 -75 12l-92 27q-47 12 -68 12q-64 0 -90 -78h-119zM416 479q0 -82 53.5 -134t136.5 -52q81 0 137 52.5t56 133.5q0 79 -56.5 133t-136.5 54q-83 0 -136.5 -52.5t-53.5 -134.5z" />
<glyph unicode="&#xe4;" horiz-adv-x="1304" d="M43 485q0 229 128.5 369.5t330.5 140.5q195 0 289 -147v125h464v-295h-118v-383h118v-295h-464v125q-99 -150 -283 -150q-195 0 -330 146.5t-135 363.5zM410 1157v270h249v-270h-249zM416 479q0 -82 53.5 -134t136.5 -52q81 0 137 52.5t56 133.5q0 79 -56.5 133 t-136.5 54q-83 0 -136.5 -52.5t-53.5 -134.5zM772 1157v270h252v-270h-252z" />
<glyph unicode="&#xe5;" horiz-adv-x="1304" d="M43 485q0 229 128.5 369.5t330.5 140.5q195 0 289 -147v125h464v-295h-118v-383h118v-295h-464v125q-99 -150 -283 -150q-195 0 -330 146.5t-135 363.5zM416 479q0 -82 53.5 -134t136.5 -52q81 0 137 52.5t56 133.5q0 79 -56.5 133t-136.5 54q-83 0 -136.5 -52.5 t-53.5 -134.5zM471 1253q0 92 64.5 157t156.5 65t155.5 -64.5t63.5 -157.5q0 -92 -63.5 -155.5t-155.5 -63.5t-156.5 63.5t-64.5 155.5zM614 1253q0 -34 22 -55.5t56 -21.5q32 0 55 22.5t23 54.5t-23 56t-55 24t-55 -24t-23 -56z" />
<glyph unicode="&#xe6;" horiz-adv-x="1763" d="M47 293q0 144 110.5 242t280.5 98q154 0 264 -78v23q0 98 -54 141t-173 43q-98 0 -252 -57v233q160 57 336 57q213 0 313 -106q138 106 338 106q221 0 363.5 -147.5t142.5 -386.5q0 -7 -1 -21.5t-1 -21.5h-674q6 -75 49 -117.5t115 -42.5q96 0 154 82l323 -100 q-171 -265 -487 -265q-201 0 -334 115q-160 -115 -393 -115q-196 0 -308 87t-112 231zM389 311q0 -46 44 -77t116 -31q71 0 114.5 30.5t43.5 77.5q0 45 -43.5 77t-112.5 32q-73 0 -117.5 -31t-44.5 -78zM1040 578h330q-6 75 -49 114t-117 39t-116 -39t-48 -114z" />
<glyph unicode="&#xe7;" horiz-adv-x="1165" d="M43 489q0 222 137.5 363t347.5 141q90 0 155.5 -29.5t96.5 -82.5v92h291v-412h-319q-44 107 -164 107q-76 0 -124 -49.5t-48 -129.5q0 -82 44.5 -129t121.5 -47q125 0 170 107h344q-32 -212 -171.5 -328.5t-359.5 -116.5q-232 0 -377 143.5t-145 370.5zM317 -301 q162 -45 271 -45q86 0 86 72q0 63 -119 63q-35 0 -55 -2v213h114v-84h19q112 0 170.5 -49.5t58.5 -142.5q0 -99 -66 -154t-188 -55q-117 0 -291 47v137z" />
<glyph unicode="&#xe8;" horiz-adv-x="1132" d="M43 487q0 221 149.5 364.5t387.5 143.5q221 0 363 -147.5t142 -386.5q0 -7 -1 -21.5t-1 -21.5h-661q6 -73 48.5 -116.5t104.5 -43.5q96 0 154 82l322 -100q-171 -265 -469 -265q-243 0 -391 139.5t-148 372.5zM264 1477h287l192 -371h-153zM422 578h317q-12 149 -157 149 q-72 0 -113 -38t-47 -111z" />
<glyph unicode="&#xe9;" horiz-adv-x="1132" d="M43 487q0 221 149.5 364.5t387.5 143.5q221 0 363 -147.5t142 -386.5q0 -7 -1 -21.5t-1 -21.5h-661q6 -73 48.5 -116.5t104.5 -43.5q96 0 154 82l322 -100q-171 -265 -469 -265q-243 0 -391 139.5t-148 372.5zM395 1106l193 371h286l-325 -371h-154zM422 578h317 q-12 149 -157 149q-72 0 -113 -38t-47 -111z" />
<glyph unicode="&#xea;" horiz-adv-x="1132" d="M43 487q0 221 149.5 364.5t387.5 143.5q221 0 363 -147.5t142 -386.5q0 -7 -1 -21.5t-1 -21.5h-661q6 -73 48.5 -116.5t104.5 -43.5q96 0 154 82l322 -100q-171 -265 -469 -265q-243 0 -391 139.5t-148 372.5zM248 1106l192 371h256l193 -371h-154l-166 199l-168 -199 h-153zM422 578h317q-12 149 -157 149q-72 0 -113 -38t-47 -111z" />
<glyph unicode="&#xeb;" horiz-adv-x="1132" d="M43 487q0 221 149.5 364.5t387.5 143.5q221 0 363 -147.5t142 -386.5q0 -7 -1 -21.5t-1 -21.5h-661q6 -73 48.5 -116.5t104.5 -43.5q96 0 154 82l322 -100q-171 -265 -469 -265q-243 0 -391 139.5t-148 372.5zM262 1157v270h250v-270h-250zM422 578h317q-12 149 -157 149 q-72 0 -113 -38t-47 -111zM625 1157v270h252v-270h-252z" />
<glyph unicode="&#xec;" horiz-adv-x="694" d="M27 1477h286l193 -371h-154zM49 0v295h119v383h-119v295h483v-678h105v-295h-588z" />
<glyph unicode="&#xed;" horiz-adv-x="694" d="M49 0v295h119v383h-119v295h483v-678h105v-295h-588zM158 1106l192 371h287l-326 -371h-153z" />
<glyph unicode="&#xee;" horiz-adv-x="694" d="M10 1106l193 371h256l192 -371h-153l-166 199l-168 -199h-154zM49 0v295h119v383h-119v295h483v-678h105v-295h-588z" />
<glyph unicode="&#xef;" horiz-adv-x="694" d="M25 1157v270h249v-270h-249zM49 0v295h119v383h-119v295h483v-678h105v-295h-588zM387 1157v270h252v-270h-252z" />
<glyph unicode="&#xf0;" horiz-adv-x="1165" d="M43 485q0 140 70 257t194 186q113 61 236 61q41 0 84 -6l-97 139l-292 -118l-64 145l266 108l-143 218h311l78 -115l256 102l64 -149l-228 -92l125 -189q57 -87 89 -140t67 -125.5t50 -140.5t15 -141q0 -105 -41.5 -199.5t-112.5 -162.5t-172 -108t-216 -40 q-230 0 -384.5 147.5t-154.5 362.5zM414 485q0 -74 48.5 -122t119.5 -48q72 0 121 48t49 122t-49.5 123t-120.5 49q-72 0 -120 -48.5t-48 -123.5z" />
<glyph unicode="&#xf1;" horiz-adv-x="1265" d="M49 0v295h119v383h-119v295h483v-125q150 147 299 147q167 0 240 -102q27 -36 34 -83.5t7 -127.5v-25v-362h117v-295h-481v528q0 88 -20.5 126t-76.5 38q-69 0 -94 -48.5t-25 -158.5v-190h105v-295h-588zM301 1151q28 125 80 185.5t135 60.5q34 0 90 -15l94 -26 q30 -10 58 -10q67 0 88 86h119q-30 -131 -82.5 -192.5t-137.5 -61.5q-35 0 -75 12l-92 27q-46 12 -68 12q-64 0 -90 -78h-119z" />
<glyph unicode="&#xf2;" horiz-adv-x="1165" d="M43 485q0 141 69 257.5t193 184.5t277 68q233 0 387.5 -147.5t154.5 -362.5q0 -105 -41.5 -199.5t-112.5 -162.5t-172 -108t-216 -40q-230 0 -384.5 147.5t-154.5 362.5zM279 1477h286l193 -371h-154zM414 485q0 -73 48.5 -121.5t119.5 -48.5q72 0 121 48t49 122 t-49.5 123t-120.5 49t-119.5 -49t-48.5 -123z" />
<glyph unicode="&#xf3;" horiz-adv-x="1165" d="M43 485q0 141 69 257.5t193 184.5t277 68q233 0 387.5 -147.5t154.5 -362.5q0 -105 -41.5 -199.5t-112.5 -162.5t-172 -108t-216 -40q-230 0 -384.5 147.5t-154.5 362.5zM410 1106l192 371h287l-326 -371h-153zM414 485q0 -73 48.5 -121.5t119.5 -48.5q72 0 121 48 t49 122t-49.5 123t-120.5 49t-119.5 -49t-48.5 -123z" />
<glyph unicode="&#xf4;" horiz-adv-x="1165" d="M43 485q0 141 69 257.5t193 184.5t277 68q233 0 387.5 -147.5t154.5 -362.5q0 -105 -41.5 -199.5t-112.5 -162.5t-172 -108t-216 -40q-230 0 -384.5 147.5t-154.5 362.5zM262 1106l193 371h256l192 -371h-153l-166 199l-168 -199h-154zM414 485q0 -73 48.5 -121.5 t119.5 -48.5q72 0 121 48t49 122t-49.5 123t-120.5 49t-119.5 -49t-48.5 -123z" />
<glyph unicode="&#xf5;" horiz-adv-x="1165" d="M43 485q0 141 69 257.5t193 184.5t277 68q233 0 387.5 -147.5t154.5 -362.5q0 -105 -41.5 -199.5t-112.5 -162.5t-172 -108t-216 -40q-230 0 -384.5 147.5t-154.5 362.5zM252 1151q28 125 80 185.5t135 60.5q35 0 90 -15l94 -26q30 -10 58 -10q67 0 88 86h118 q-30 -131 -82 -192.5t-137 -61.5q-34 0 -75 12l-93 27q-46 12 -67 12q-64 0 -90 -78h-119zM414 485q0 -73 48.5 -121.5t119.5 -48.5q72 0 121 48t49 122t-49.5 123t-120.5 49t-119.5 -49t-48.5 -123z" />
<glyph unicode="&#xf6;" horiz-adv-x="1165" d="M43 485q0 141 69 257.5t193 184.5t277 68q233 0 387.5 -147.5t154.5 -362.5q0 -105 -41.5 -199.5t-112.5 -162.5t-172 -108t-216 -40q-230 0 -384.5 147.5t-154.5 362.5zM276 1157v270h250v-270h-250zM414 485q0 -73 48.5 -121.5t119.5 -48.5q72 0 121 48t49 122 t-49.5 123t-120.5 49t-119.5 -49t-48.5 -123zM639 1157v270h252v-270h-252z" />
<glyph unicode="&#xf7;" horiz-adv-x="1705" d="M254 496v231h1198v-231h-1198zM688 205q0 69 49 117.5t117 48.5t116 -48.5t48 -117.5q0 -67 -47.5 -115.5t-116.5 -48.5q-68 0 -117 48t-49 116zM688 1016q0 69 49 117.5t117 48.5q66 0 115 -49t49 -117q0 -67 -48 -115.5t-118 -48.5q-69 0 -116.5 48t-47.5 116z" />
<glyph unicode="&#xf8;" horiz-adv-x="1165" d="M-25 -147l220 274q-152 152 -152 358q0 141 69 257.5t193 184.5t277 68q128 0 249 -53l146 182h209l-217 -276q155 -152 155 -363q0 -105 -41.5 -199.5t-112.5 -162.5t-172 -108t-216 -40q-136 0 -252 58l-144 -180h-211zM414 485q0 -73 48.5 -121.5t119.5 -48.5 q72 0 121 48t49 122t-49.5 123t-120.5 49t-119.5 -49t-48.5 -123z" />
<glyph unicode="&#xf9;" horiz-adv-x="1241" d="M27 678v295h483v-529q0 -89 19 -127t75 -38q69 0 94 48t25 158v193h-102v295h469v-295v-383h118v-295h-485v125q-153 -150 -297 -150q-164 0 -240 105q-26 36 -33.5 83t-7.5 126v24v365h-118zM285 1477h286l193 -371h-154z" />
<glyph unicode="&#xfa;" horiz-adv-x="1241" d="M27 678v295h483v-529q0 -89 19 -127t75 -38q69 0 94 48t25 158v193h-102v295h469v-295v-383h118v-295h-485v125q-153 -150 -297 -150q-164 0 -240 105q-26 36 -33.5 83t-7.5 126v24v365h-118zM416 1106l192 371h287l-326 -371h-153z" />
<glyph unicode="&#xfb;" horiz-adv-x="1241" d="M27 678v295h483v-529q0 -89 19 -127t75 -38q69 0 94 48t25 158v193h-102v295h469v-295v-383h118v-295h-485v125q-153 -150 -297 -150q-164 0 -240 105q-26 36 -33.5 83t-7.5 126v24v365h-118zM268 1106l193 371h256l192 -371h-153l-166 199l-168 -199h-154z" />
<glyph unicode="&#xfc;" horiz-adv-x="1241" d="M27 678v295h483v-529q0 -89 19 -127t75 -38q69 0 94 48t25 158v193h-102v295h469v-295v-383h118v-295h-485v125q-153 -150 -297 -150q-164 0 -240 105q-26 36 -33.5 83t-7.5 126v24v365h-118zM283 1157v270h249v-270h-249zM645 1157v270h252v-270h-252z" />
<glyph unicode="&#xfd;" horiz-adv-x="1236" d="M8 678v295h561v-295h-88l146 -336l141 336h-80v295h524v-295h-118l-377 -811h119v-295h-568v295h133l62 133l-328 678h-127zM444 1106l193 371h287l-326 -371h-154z" />
<glyph unicode="&#xfe;" horiz-adv-x="1304" d="M49 -133h119v1313h-119v295h483v-607q113 127 295 127q88 0 167.5 -37t138.5 -102.5t94 -162t35 -208.5q0 -141 -61 -258.5t-164.5 -184.5t-225.5 -67q-90 0 -157 28.5t-122 90.5v-227h127v-293h-610v293zM506 479q0 -81 55.5 -133.5t136.5 -52.5q83 0 137 52t54 134 t-54 134.5t-137 52.5q-81 0 -136.5 -53t-55.5 -134z" />
<glyph unicode="&#xff;" horiz-adv-x="1236" d="M8 678v295h561v-295h-88l146 -336l141 336h-80v295h524v-295h-118l-377 -811h119v-295h-568v295h133l62 133l-328 678h-127zM311 1157v270h250v-270h-250zM674 1157v270h252v-270h-252z" />
<glyph unicode="&#x152;" horiz-adv-x="2228" d="M53 737q0 206 86.5 371.5t241.5 259.5q102 62 235 84.5t328 22.5h1190v-535h-256l-88 240h-424v-240h291v-328h-291v-317h424l88 287h256v-582h-1190q-180 0 -318 27t-255 94q-147 85 -232.5 248.5t-85.5 367.5zM451 735q0 -194 111 -318t284 -124q47 0 74.5 7.5t42 28 t18.5 46.5t4 74v575q0 48 -4 74t-18.5 46.5t-42 28t-74.5 7.5q-174 0 -284.5 -123.5t-110.5 -321.5z" />
<glyph unicode="&#x153;" horiz-adv-x="1810" d="M43 485q0 141 69.5 257.5t193.5 184.5t278 68q196 0 338 -106q138 106 335 106q221 0 363.5 -147.5t142.5 -386.5q0 -7 -1 -21.5t-1 -21.5h-674q6 -75 50 -117.5t116 -42.5q96 0 154 82l322 -100q-171 -265 -488 -265q-180 0 -321 105q-153 -105 -336 -105 q-114 0 -214.5 40t-172 108t-113 162.5t-41.5 199.5zM416 485q0 -73 48.5 -121.5t119.5 -48.5q72 0 121 48t49 122t-49.5 123t-120.5 49t-119.5 -49t-48.5 -123zM1087 578h330q-6 75 -48 114t-116 39t-117 -39t-49 -114z" />
<glyph unicode="&#x178;" horiz-adv-x="1503" d="M16 1180v295h648v-295h-119l213 -349l211 349h-117v295h633v-295h-113l-432 -635v-250h156v-295h-688v295h149v250l-426 635h-115zM444 1636v271h250v-271h-250zM807 1636v271h252v-271h-252z" />
<glyph unicode="&#x2c6;" horiz-adv-x="1024" d="M190 1106l193 371h256l192 -371h-153l-166 199l-168 -199h-154z" />
<glyph unicode="&#x2dc;" horiz-adv-x="1024" d="M180 1151q28 125 80 185.5t135 60.5q35 0 90 -15l95 -26q30 -10 57 -10q67 0 88 86h119q-30 -131 -82 -192.5t-137 -61.5q-35 0 -76 12l-92 27q-46 12 -68 12q-64 0 -90 -78h-119z" />
<glyph unicode="&#x2000;" horiz-adv-x="986" />
<glyph unicode="&#x2001;" horiz-adv-x="1972" />
<glyph unicode="&#x2002;" horiz-adv-x="986" />
<glyph unicode="&#x2003;" horiz-adv-x="1972" />
<glyph unicode="&#x2004;" horiz-adv-x="657" />
<glyph unicode="&#x2005;" horiz-adv-x="493" />
<glyph unicode="&#x2006;" horiz-adv-x="328" />
<glyph unicode="&#x2007;" horiz-adv-x="328" />
<glyph unicode="&#x2008;" horiz-adv-x="246" />
<glyph unicode="&#x2009;" horiz-adv-x="394" />
<glyph unicode="&#x200a;" horiz-adv-x="109" />
<glyph unicode="&#x2010;" horiz-adv-x="634" d="M45 346v328h547v-328h-547z" />
<glyph unicode="&#x2011;" horiz-adv-x="634" d="M45 346v328h547v-328h-547z" />
<glyph unicode="&#x2012;" horiz-adv-x="634" d="M45 346v328h547v-328h-547z" />
<glyph unicode="&#x2013;" horiz-adv-x="1024" d="M0 389v242h1024v-242h-1024z" />
<glyph unicode="&#x2014;" horiz-adv-x="2048" d="M0 389v242h2048v-242h-2048z" />
<glyph unicode="&#x2018;" horiz-adv-x="552" d="M45 1024l131 451h322l-140 -451h-313z" />
<glyph unicode="&#x2019;" horiz-adv-x="552" d="M45 1024l133 451h322l-140 -451h-315z" />
<glyph unicode="&#x201a;" horiz-adv-x="552" d="M45 -162l133 451h322l-140 -451h-315z" />
<glyph unicode="&#x201c;" horiz-adv-x="1095" d="M45 1024l133 451h322l-140 -451h-315zM588 1024l133 451h321l-139 -451h-315z" />
<glyph unicode="&#x201d;" horiz-adv-x="1095" d="M45 1024l133 451h322l-140 -451h-315zM588 1024l133 451h321l-139 -451h-315z" />
<glyph unicode="&#x201e;" horiz-adv-x="1095" d="M45 -162l133 451h322l-140 -451h-315zM588 -162l133 451h321l-139 -451h-315z" />
<glyph unicode="&#x2022;" horiz-adv-x="1208" d="M307 762q0 123 87 209t210 86q122 0 208.5 -86t86.5 -209q0 -122 -87 -209.5t-210 -87.5t-209 87t-86 210z" />
<glyph unicode="&#x2026;" horiz-adv-x="2048" d="M135 180q0 88 59.5 146.5t147.5 58.5q89 0 148 -58.5t59 -146.5t-59 -146.5t-148 -58.5q-88 0 -147.5 58.5t-59.5 146.5zM817 180q0 88 59.5 146.5t147.5 58.5q89 0 148 -58.5t59 -146.5t-59 -146.5t-148 -58.5q-88 0 -147.5 58.5t-59.5 146.5zM1501 180q0 88 59.5 146.5 t147.5 58.5q89 0 148 -58.5t59 -146.5t-59 -146.5t-148 -58.5q-88 0 -147.5 58.5t-59.5 146.5z" />
<glyph unicode="&#x202f;" horiz-adv-x="394" />
<glyph unicode="&#x2039;" horiz-adv-x="743" d="M100 485l277 332h285l-279 -332l279 -331h-285z" />
<glyph unicode="&#x203a;" horiz-adv-x="743" d="M84 154l276 331l-276 332h283l278 -332l-278 -331h-283z" />
<glyph unicode="&#x205f;" horiz-adv-x="493" />
<glyph unicode="&#x2122;" horiz-adv-x="1705" d="M188 1337v127h502v-127h-164v-424h-174v424h-164zM797 913v551h223l113 -303l114 303h221v-551h-155v390l-146 -390h-65l-150 390v-390h-155z" />
<glyph unicode="&#x25fc;" horiz-adv-x="972" d="M0 0v973h973v-973h-973z" />
<glyph unicode="&#xfb01;" horiz-adv-x="1394" d="M59 0v295h121v383h-121v295h121v135q0 124 12 192.5t50 106.5q39 39 105.5 53.5t178.5 14.5q64 0 164 -7v-286q-6 0 -18.5 1t-18.5 1q-68 0 -87 -29.5t-19 -118.5v-63h121v-295h-121v-383h121v-295h-609zM758 0v295h119v383h-119v295h483v-678h105v-295h-588zM799 1106 v315h442v-315h-442z" />
<glyph unicode="&#xfb02;" horiz-adv-x="1394" d="M59 0v295h121v383h-121v295h121v135q0 124 12 192.5t50 106.5q39 39 105.5 53.5t178.5 14.5q64 0 164 -7v-286q-6 0 -18.5 1t-18.5 1q-68 0 -87 -29.5t-19 -118.5v-63h121v-295h-121v-383h121v-295h-609zM758 0v295h119v885h-119v295h483v-1180h105v-295h-588z" />
</font>
</defs>
</svg>
